<svg id="Слой_1" data-name="Слой 1" xmlns="http://www.w3.org/2000/svg" viewBox="0 0 2000 2000"><defs><style>.cls-1,.cls-50{fill:#36a3fd;}.cls-2{fill:#b2dae4;}.cls-3{fill:#b6deeb;}.cls-4{fill:#afd0e0;}.cls-5{fill:#abcee3;}.cls-6{fill:#afdfe5;}.cls-7{fill:#b3d7e4;}.cls-8{fill:#a4b6d1;}.cls-9{fill:#b5dbe3;}.cls-10{fill:#b7c5d7;}.cls-11{fill:#aed3e1;}.cls-12{fill:#b3d4e6;}.cls-13{fill:#b1d8e3;}.cls-14{fill:#acc6d8;}.cls-15{fill:#a3b3cc;}.cls-16{fill:#b0d6de;}.cls-17{fill:#a0aecd;}.cls-18{fill:#a3b5cf;}.cls-19{fill:#add2df;}.cls-20{fill:#a2b1d0;}.cls-21{fill:#9faeca;}.cls-22{fill:#b2d4e1;}.cls-23{fill:#abd9e2;}.cls-24{fill:#b2d7e3;}.cls-25{fill:#b3d9e5;}.cls-26{fill:#a3bbd5;}.cls-27{fill:#aecdde;}.cls-28{fill:#a2b8ca;}.cls-29{fill:#aac4d6;}.cls-30{fill:#a4b3cc;}.cls-31{fill:#add8df;}.cls-32{fill:#a6c8dc;}.cls-33{fill:#9db2c8;}.cls-34{fill:#9fb0ce;}.cls-35{fill:#aad3de;}.cls-36{fill:#a0b5ce;}.cls-37{fill:#a4c2d7;}.cls-38{fill:#a3bfd3;}.cls-39{fill:#a6c0d4;}.cls-40{fill:#b2dae3;}.cls-41{fill:#a8b7cd;}.cls-42{fill:#9cafcd;}.cls-43{fill:#add2de;}.cls-44{fill:#a0b2cb;}.cls-45{fill:#a7bdd4;}.cls-46{fill:#6fe5fd;}.cls-47{fill:#6de5fd;}.cls-48{fill:#72e4fd;}.cls-49{fill:#71e4fd;}.cls-50{font-size:277.66px;font-family:Poppins-Bold, Poppins;font-weight:700;}</style></defs><path class="cls-1" d="M1223,441.5a616.74,616.74,0,0,1,247.19,161.67C1462.91,594.21,1380,495.33,1223,441.5Zm129.45-66.37c-.46-.25-.92-.5-1.38-.71a725.86,725.86,0,0,0-331.79-79.73V407a614.62,614.62,0,0,1,450.91,196.15q.12.06.12.12l.5.5L1554.55,529C1487.85,459,1418.37,409.77,1352.42,375.13Z"/><path class="cls-1" d="M1678.33,1027.05c-13.15,0-26.3-.23-39.43.08-9.41.22-13.81-3.42-14.12-13.27-.33-10.46,5.33-13.29,14-13.29,27,0,53.94.34,80.89,0,9.71-.11,11.43,4.87,11.37,13s-1.86,13.68-11.25,13.65c-13.83,0-27.67,0-41.5,0Z"/><path class="cls-1" d="M496.32,1325.37c-.09,6.08-5.22,7.7-9.23,10-22.13,12.89-44.44,25.45-66.49,38.46-7.82,4.61-13,5.22-18.35-4.1-5.09-8.83-3.62-13.09,4.84-17.79,23-12.77,45.44-26.47,68.45-39.19C485.89,1307.06,496.72,1314.11,496.32,1325.37Z"/><path class="cls-1" d="M1639,664.65c.36,6.58-4.77,8.24-8.71,10.56-22.53,13.25-45.23,26.2-67.68,39.57-8.1,4.82-13.09,3.66-18.18-4.72-5.29-8.72-3.37-13.23,5-17.9,22.81-12.72,45.57-25.58,67.82-39.24C1632.82,643.35,1633.51,657.74,1639,664.65Z"/><path class="cls-1" d="M1031.83,1673c0,13.15-.28,26.32.09,39.46.27,9.61-3.26,13.4-13.35,13.41-10.59,0-12.71-4.7-12.57-13.93.41-25.61.61-51.24,0-76.84-.25-11,4-14.56,14.5-14.51,11.31,0,11.74,6.68,11.55,15-.27,12.46-.07,24.93-.07,37.39Z"/><path class="cls-2" d="M1031.83,351.27c0,13.15-.28,26.31.09,39.46.27,9.61-3.26,13.4-13.35,13.41-10.59,0-12.71-4.71-12.57-13.93.41-25.61.61-51.25,0-76.85-.25-11,4-14.55,14.5-14.5,11.31.05,11.74,6.68,11.55,15-.27,12.46-.07,24.92-.07,37.39Z"/><path class="cls-1" d="M669.55,1633.4c-5.93-5.47-22.26-4.18-11.59-21,14.09-22.14,26.91-45.13,39.55-68.16,4.82-8.77,9.09-9.62,17.79-4.86,9.13,5,9.33,9.67,4.49,17.77-13.5,22.54-26.35,45.46-39.64,68.12C677.94,1629.09,676.94,1635,669.55,1633.4Z"/><path class="cls-1" d="M480.61,717.34c-6.24-3.48-13.5-7.49-20.74-11.56-17.51-9.86-34.9-19.93-52.55-29.54-8.13-4.42-11.35-9.07-5.5-18,5.15-7.87,10.24-10,18.73-4.91C443.11,666.89,466,680,488.73,693.2c5.09,2.95,10,6,5.77,12.85C491.47,711,490.47,718.42,480.61,717.34Z"/><path class="cls-1" d="M722.44,478.74c-.21,6.41-6.18,7.94-10.71,10.58-4.92,2.88-9.2,2-12.22-3.24-14.18-24.5-28.45-48.95-42.57-73.48-5-8.64,1.44-12.47,7.39-16.35,5.32-3.48,10.28-4.23,13.93,2.22q21.45,37.84,42.77,75.75A25.47,25.47,0,0,1,722.44,478.74Z"/><path class="cls-1" d="M1328.94,1536.39c7.44-2.09,8.52,4.08,10.69,7.77,13.28,22.57,26,45.49,39.44,67.95,5,8.29,4.08,13.06-4.41,18.25-8.67,5.29-13.08,3.48-17.75-5-12.68-22.92-25.48-45.81-39.29-68.06C1307.85,1541.61,1321.73,1541.1,1328.94,1536.39Z"/><path class="cls-1" d="M1624.19,1377.74c-2.1-1-5.23-2.43-8.18-4.13-22-12.79-43.69-26.25-66.16-38.2-10.39-5.52-9.52-10.8-4.8-19.4,5.38-9.8,11.28-6.93,18.29-2.71q32.7,19.74,65.6,39.14c5.66,3.34,11.07,6.61,7.12,14.39C1633.7,1371.49,1632.71,1377.77,1624.19,1377.74Z"/><path class="cls-1" d="M408.63,1023.91c-31.05,8.35-62.58,1.39-93.86,2.76-6.06.26-7.62-5.18-7.34-10.39.32-6-.51-12.48,8.07-14.45a64.31,64.31,0,0,1,34.65,1.1c5.77,14.38,16.91,16.91,31.1,15.74C390.43,1017.92,400.71,1016,408.63,1023.91Z"/><path class="cls-1" d="M408.63,1023.91c-11.55-.12-23.17-1.1-34.62-.13-15.87,1.34-28.64.73-23.86-20.85,14.9-.45,29.82-.63,44.71-1.42C413.59,1000.53,415.31,1009.51,408.63,1023.91Z"/><path class="cls-3" d="M941.66,326.77c3.32-5.1-8.91-19.33,3.09-20.14,10.19-.69,8.22,14.52,9.15,23.74.82,8.12,2.8,16.13,3.34,24.26.32,5-1.89,9.84-8.09,9.65-4.85-.14-7.18-4.12-7.37-8.39C941.38,347,941.66,338.09,941.66,326.77Z"/><path class="cls-4" d="M356.83,950.39c-12.47-1.21-26.06-2.21-39.53-4.06-3.66-.5-8.32-2.83-6.23-8.39,1.32-3.53,4.81-5.63,8.25-4.69,13.43,3.7,27.21,2.43,40.8,3.63,5.19.46,10.06,3,9,8.82C368.16,951.38,363.31,952.72,356.83,950.39Z"/><path class="cls-5" d="M343.56,1077.68c6.74,0,9.53-.31,12.24.06,4.87.67,12.71-2.63,12.74,5.78,0,5.43-6.26,6.22-11.26,6.71-12.27,1.18-24.51,2.76-36.8,3.81-4.35.37-8.89-1.49-9.68-6-1-5.76,4.4-5.56,8.23-6.63C328.37,1078.79,337.82,1077.29,343.56,1077.68Z"/><path class="cls-6" d="M887,361.22c0,6.4.8,12.53-4.95,13.91-6.78,1.63-7.06-5.13-8.06-9.46q-4.15-18.06-7.47-36.31c-.75-4.15-.13-9.05,4.68-10.29,5.53-1.42,6.56,3.57,7.54,7.51C881.73,338.6,884.52,350.67,887,361.22Z"/><path class="cls-7" d="M533,573.15c-2.78,7.4-8.16,5.79-12.64,1.75-9.77-8.81-19.06-18.16-28.32-27.51-3-3-5.57-7.11.43-9.71C499.58,534.58,534,564.34,533,573.15Z"/><path class="cls-8" d="M1496.59,1538c-1.91,6.09-6.17,7.36-10.54,3-10.07-10.16-19.66-20.8-29.11-31.54-2-2.33-4.26-5.94-1.13-9.11,1.15-1.16,3.66-1.57,5.44-1.38C1466.47,1499.48,1496.71,1533,1496.59,1538Z"/><path class="cls-9" d="M730.37,362.81a15.88,15.88,0,0,1,3.94.73C737.06,364.75,758,408.32,757,411c-2.32,6.58-8.36,6.74-11.07,2.6a148.74,148.74,0,0,1-19.49-44.89C725.75,365.89,726.82,363.29,730.37,362.81Z"/><path class="cls-10" d="M1596.78,1429.36c-2,4.56-5.06,7.3-9.64,4.29-13.12-8.6-26.07-17.46-38.92-26.45a5.4,5.4,0,0,1-1.62-7.31c1.94-3.53,4.76-4.64,8.46-2.56,13.7,7.73,26.84,16.26,38.32,27.11C1594.82,1425.8,1595.69,1427.75,1596.78,1429.36Z"/><path class="cls-11" d="M1666,881.92c-2.35-.07-7,.53-7.87-5.18a5.19,5.19,0,0,1,4.23-6.14c14.84-2.87,29-9.37,44.46-9,3.61.09,7.07,1,7.54,5.31s-2.42,6.06-6.11,6.78C1694.72,876.37,1681.2,879,1666,881.92Z"/><path class="cls-12" d="M443,599.27c.56-4.57,3.6-8.06,8-5.11,13,8.65,25.58,18,37.9,27.59,3.48,2.71,1.22,6.53-2.16,8.14C480.13,633.05,443.33,607.45,443,599.27Z"/><path class="cls-13" d="M1459.87,528.26c-5.7-.92-7.13-4.45-3.72-8.59q13.74-16.66,28.41-32.55c3.87-4.16,8.8-5.34,10.07,2.46C1495.85,497.07,1467.22,528.51,1459.87,528.26Z"/><path class="cls-14" d="M1702.44,1165.77c-12.86-3-25.61-5.9-38.36-8.87-3.7-.86-6.57-2.84-5.81-7,1.06-5.76,5.37-5.06,9.63-4.2q18.19,3.64,36.43,7.16c4.6.89,10.9.34,9.9,7.41C1713.27,1167.08,1706.76,1164.37,1702.44,1165.77Z"/><path class="cls-15" d="M1406.63,1541c1.63,1.31,4.06,2.58,5.53,4.57,8.62,11.63,17,23.41,25.47,35.19,1.66,2.32,2.66,4.91.26,7.39-2.23,2.29-5.71,2.73-7.38.61-10.21-12.91-20.3-26-29.72-39.45C1398.65,1546.19,1402.25,1543.06,1406.63,1541Z"/><path class="cls-16" d="M423.54,745.32c-1.56,5.75-5.25,8.15-10.7,5.7-13.73-6.17-27.28-12.73-40.91-19.14-2.83-1.33-4.57-3.65-2.76-6.37,1.31-2,4.77-4.7,6.06-4.17,15.66,6.49,31.11,13.49,46.55,20.52C422.69,742.28,423,744.12,423.54,745.32Z"/><path class="cls-17" d="M866.75,1699.67c2.75-13.2,5.13-24.68,7.54-36.16,1-4.54.57-11.2,7.44-10.07,8,1.33,5.61,8.52,4.69,13.53-2.12,11.52-5.11,22.88-7.57,34.34-.9,4.21-1.71,8.92-7.15,8.16C864.43,1708.47,867.52,1702.25,866.75,1699.67Z"/><path class="cls-18" d="M1509,1449.29c15.24,9.28,27.29,21.34,38.58,34.19.89,1,.39,4.16-.53,5.65-1.54,2.47-4.73,3.69-7,1.69-11.82-10.29-23.5-20.76-34.86-31.54-1.43-1.36-1.3-5.08-.78-7.46C1504.66,1450.67,1507.49,1450.07,1509,1449.29Z"/><path class="cls-19" d="M365.89,881.86c-12.7-3-24.83-5.68-36.87-8.75-3.36-.86-6.56-3.07-6-7.22.59-4.75,4.94-4.76,8-4.19,14.24,2.58,28.42,5.54,42.56,8.63,3.82.83,6.16,3.72,4.42,7.66C375.4,883.83,369.9,881.78,365.89,881.86Z"/><path class="cls-20" d="M1098.63,1707.15c.31,6.85.61,12.64-5.39,13.72-7.76,1.41-5.85-5.66-6.77-9.85-2.68-12.14-4.6-24.38-3.9-36.88.24-4.21.5-9.08,6-9,5.2.08,6,4.79,6.27,9.06C1095.67,1685.88,1094.67,1697.74,1098.63,1707.15Z"/><path class="cls-21" d="M1170.38,1698.66c-.47,4.07,1.45,9.27-4.3,10.31-5.3,1-6.86-3.58-7.77-7.58-2.86-12.65-5.59-25.35-8.06-38.09-.77-4-1.23-8.75,4.33-9.83s6.56,3.17,7.47,7.41C1164.75,1673.57,1167.62,1686.22,1170.38,1698.66Z"/><path class="cls-22" d="M1612.61,749.13c14.57-17.26,30.75-18.78,43.53-26.43,4-2.42,8.24-2.47,10.88,1.75,3,4.88-.61,7.51-4.48,9.53C1648.4,741.38,1634.18,748.49,1612.61,749.13Z"/><path class="cls-23" d="M1510.6,577.63c-3.06.45-6-.44-6.4-3.52-.35-2.45.15-6.06,1.76-7.57,10.07-9.45,20.31-18.77,31-27.42,3.69-3,9.51-4.7,10.6,3.26C1548.15,546.29,1515,577.3,1510.6,577.63Z"/><path class="cls-24" d="M548.1,484.87c4.68.21,35.34,33.37,34.6,37.52-1.25,7.12-7,7.57-10.6,3.88a386,386,0,0,1-28.5-32.62C540.52,489.75,543.22,485.93,548.1,484.87Z"/><path class="cls-2" d="M1438.41,447.09c-8.9,11.48-18.86,24.51-29.12,37.29-.75.93-4.49.88-5.45-.09-1.7-1.74-3.91-5.66-3.17-6.69,9.58-13.29,19.18-26.62,29.94-38.93C1433,435.89,1438.29,439.15,1438.41,447.09Z"/><path class="cls-25" d="M638,488.76c-20.59-11-27.13-27.67-38.11-40.19-2.19-2.5-3.19-6.37.53-9.07,4.47-3.23,8.22-.76,10.56,2.7C620,455.54,631.87,467.26,638,488.76Z"/><path class="cls-26" d="M448,1433.73c-1-.6-3.15-1.24-4.17-2.7-2.34-3.34-1.28-6.68,1.85-8.91q17.55-12.51,35.34-24.67c2.32-1.59,5.36-2.16,7.36.51a8.35,8.35,0,0,1,1.47,5.48C489.51,1406.53,452.1,1433.84,448,1433.73Z"/><path class="cls-27" d="M1691,949.3c-4.12,0-8.24.13-12.35,0-3.45-.13-7.29-.57-7.47-5-.17-4.05,3.16-6.26,6.55-6.62,14.23-1.5,28.5-2.74,42.79-3.49,1.79-.09,4.77,3,5.39,5.2.81,2.79-1.78,4.42-4.61,5.56C1711.47,948.83,1701.25,949.19,1691,949.3Z"/><path class="cls-28" d="M494.12,1490.14c-1.1-.59-4.22-1.4-4.32-2.48-.21-2.4.3-5.78,1.9-7.28,10.59-9.93,21.51-19.5,32.41-29.09,2.17-1.91,5-2.92,7.31-.5a7.84,7.84,0,0,1,1.58,5.53C532.44,1462.13,500.73,1490.05,494.12,1490.14Z"/><path class="cls-29" d="M334.66,1165.2c-5.05.15-9.8.06-10.72-5-1-5.42,3.77-6.23,7.82-7.1,12.64-2.72,25.24-5.67,37.93-8.13,4.2-.82,8.69.06,8.86,5.62.13,4-3,5.61-6.69,6.4C359.19,1159.74,346.54,1162.57,334.66,1165.2Z"/><path class="cls-30" d="M732.3,1664.2c-4.62-.5-7.27-2.77-6.16-5.44q9.51-22.86,20.15-45.25c.7-1.49,5-2.31,7.18-1.8,3,.67,3.77,3.72,2.48,6.62-6.15,13.86-12.26,27.74-18.72,41.46C736.24,1661.89,733.49,1663.17,732.3,1664.2Z"/><path class="cls-31" d="M1552.26,631.37c-1-.59-3.1-1.23-4.25-2.65-2.07-2.56-.87-5.4,1.34-7.08,11.32-8.62,22.56-17.39,34.38-25.26,3.79-2.53,10-3.25,9.49,4.86C1592.92,606.11,1558.39,631.7,1552.26,631.37Z"/><path class="cls-32" d="M1692.86,1077.74c6.52,1,16.6,2.64,26.66,4.28,3.45.56,7.17,1.38,6.32,6-.71,3.86-3.82,5.32-7.67,5l-36.63-2.82c-4.71-.37-10.84,0-11.11-6.22-.3-6.73,5.9-6.06,10.58-6.24C1683.73,1077.65,1686.47,1077.74,1692.86,1077.74Z"/><path class="cls-33" d="M1288,1611.56c1.2,1,4,2.25,5,4.34q9.3,19.42,17.83,39.21c1.4,3.23,1,7.28-3.13,8.28-2.13.51-6.33-.64-7-2.18q-9.51-21.53-17.89-43.53C1281.86,1615.45,1282.82,1612.17,1288,1611.56Z"/><path class="cls-34" d="M801.06,1689.06c-6.44-.94-6.3-5.76-5.19-9.43,3.94-13.09,8.4-26,13.12-38.86.74-2,3.65-4.14,5.84-4.51,2.79-.46,5.92,2.08,5.08,4.92-4.44,15-9.34,29.82-14.39,44.61C805,1687.3,802.43,1688.1,801.06,1689.06Z"/><path class="cls-35" d="M352.87,790.92c11.39,3.82,25.1,8.33,38.73,13a5.5,5.5,0,0,1,3.77,6.5c-.76,4.35-4.15,5.6-7.68,4.47-13.7-4.39-27.33-9-40.82-14a5.33,5.33,0,0,1-3.16-6.84C344.85,791,347.54,790.67,352.87,790.92Z"/><path class="cls-36" d="M954.9,1687.6c-1.43,8.73-2.68,17.5-4.36,26.18-.74,3.81-1.33,8.87-7.32,7.23-3.73-1-5-4.32-4.53-8.13,1.32-11.51,2.06-23.14,4.23-34.49.89-4.62-.14-13.31,7.36-12.55,8,.81,4.33,8.33,4.11,13.41-.12,2.73-.25,5.47-.37,8.21Z"/><path class="cls-37" d="M1651.38,1212.63c11.14,3.82,24.87,8.37,38.44,13.34a5.28,5.28,0,0,1-3.24,10c-13.83-4.11-27.58-8.52-41.3-13-4-1.3-5.18-4.57-3.49-8.17C1643,1212.21,1645.75,1211.27,1651.38,1212.63Z"/><path class="cls-38" d="M420,1284.48c-1.45,1.3-3.15,3.72-5.47,4.74-14.21,6.29-27.52,15.11-43.61,16.21-.69,0-2.75-4.13-2.25-4.72,10.73-12.67,26.89-15.3,41-21.74a14.08,14.08,0,0,1,6-.9C419.08,1278.12,420.18,1280.39,420,1284.48Z"/><path class="cls-39" d="M1668.39,1299.65c-1.92,5-4.93,7.62-9.67,5.61-12.57-5.34-25-11-37.45-16.66-3.28-1.5-5.87-4.41-4.11-8.12s5.93-3.75,9-2.5c13.26,5.42,26.38,11.23,39.41,17.17C1667,1295.81,1667.58,1298.29,1668.39,1299.65Z"/><path class="cls-40" d="M820.34,384c-.86,1.56-1.54,4.71-3.41,5.77-3.39,1.94-6.83.48-8.16-3.38-4.47-13-8.88-25.95-12.89-39.05-.94-3.07-1-7.26,3.2-8.6s6.56,1.87,7.7,5.08C811.36,356.77,815.57,369.81,820.34,384Z"/><path class="cls-41" d="M638.09,1548.33c-9.9,13-19.79,26.22-30,39.16-.82,1-5,1.19-5.47.45-1.24-2.09-2.67-5.76-1.68-7.23q12.67-18.84,26.42-37c1.17-1.54,4.94-1.79,7.34-1.43C635.85,1542.49,636.57,1545.48,638.09,1548.33Z"/><path class="cls-42" d="M1240.86,1678.51c.71,6.31.49,10.84-4.6,11.86-4.41.88-5.29-3.76-6.23-6.65-4.24-13-8-26.19-12-39.3-1.08-3.51-1.65-6.93,2.91-8.14,4.13-1.09,6.17,1.45,7.39,5.1C1232.64,1654.38,1237.08,1667.35,1240.86,1678.51Z"/><path class="cls-43" d="M1693.4,796.22c-1.45,4.43-5.1,6.38-9.1,7.69q-16.68,5.42-33.44,10.57c-3.36,1-6.95,1.64-8.71-2.53-1.36-3.21,1-5.48,3.26-6.84,13.18-8.05,28.26-10.52,43-13.92C1691.52,790.46,1693.17,793.09,1693.4,796.22Z"/><path class="cls-44" d="M582.27,1502.23c.31,5.58-30.54,40.56-34.77,40.8-6.06.33-7.65-4.63-5-7.89,9.82-12.2,20.27-23.94,31.2-35.15C577.2,1496.37,580.93,1499.22,582.27,1502.23Z"/><path class="cls-45" d="M395.73,1217.81c-.75,1.2-1.45,3.82-2.88,4.32q-21.19,7.32-42.63,13.91c-2.46.76-5.82,0-6.32-3.33a6.09,6.09,0,0,1,2.29-4.92c13.46-8.68,29.5-10.17,44.23-15.36C393.27,1211.42,395.28,1214,395.73,1217.81Z"/><path class="cls-46" d="M1170.48,331.37c-2.54,10.94-5.46,23.64-8.47,36.32-.86,3.63-2.7,6.51-7,5.84-4.75-.74-4.36-4-3.69-7.73,2.31-12.84,4.38-25.73,6.47-38.61.7-4.35,2.43-9.13,6.93-9C1171.78,318.48,1169.7,325,1170.48,331.37Z"/><path class="cls-47" d="M1310.81,371.11a178.49,178.49,0,0,1-18.21,40.42c-1.08,1.73-5,3.22-6.84,2.61-3.86-1.27-4.08-5.83-2.85-8.63,5.77-13.07,12-25.95,18.51-38.65.9-1.75,4.67-3.2,6.78-2.84C1311.17,364.53,1311.44,367.8,1310.81,371.11Z"/><path class="cls-48" d="M1099.12,321.56c-3.43,9.81-3.9,20.77-4.26,31.76-.15,4.39-1.71,8.37-7.23,7.6-4.37-.61-4.69-4.5-4.86-7.9-.57-11.71-.27-23.31,3.48-34.64,1.45-4.36.63-10.81,7.73-9.49C1100.48,310.09,1098.65,316.19,1099.12,321.56Z"/><path class="cls-49" d="M1223,390.68c-6.2-.72-7.37-4.45-6-8.93,4.14-13.06,8.44-26.09,13.19-38.94.7-1.89,4.07-3.65,6.38-3.91,3.58-.39,4.5,3.27,4.18,5.76-1.91,15.08-7.69,29-13.39,42.95C1226.81,389.12,1224.28,389.85,1223,390.68Z"/><path class="cls-2" d="M1386.25,395.07c3.37,5.67-.42,9.51-2.85,13.39-13.85,22.16-28,44.14-41.73,66.37-5,8-9.9,9.3-18.29,4.21-8.73-5.29-9.11-10.17-3.85-18.17,14.35-21.82,28.58-43.75,42-66.14C1371,379,1378.23,391.46,1386.25,395.07Z"/><text class="cls-50" transform="translate(843.36 949.03)">1.5<tspan x="-238.79" y="333.2">Hours</tspan></text></svg>