<svg id="Слой_1" data-name="Слой 1" xmlns="http://www.w3.org/2000/svg" viewBox="0 0 2000 2000"><defs><style>.cls-1,.cls-50{fill:#36a3fd;}.cls-2{fill:#b2dae4;}.cls-3{fill:#b6deeb;}.cls-4{fill:#afd0e0;}.cls-5{fill:#abcee3;}.cls-6{fill:#afdfe5;}.cls-7{fill:#b3d7e4;}.cls-8{fill:#a4b6d1;}.cls-9{fill:#b5dbe3;}.cls-10{fill:#b7c5d7;}.cls-11{fill:#aed3e1;}.cls-12{fill:#b3d4e6;}.cls-13{fill:#b1d8e3;}.cls-14{fill:#acc6d8;}.cls-15{fill:#a3b3cc;}.cls-16{fill:#b0d6de;}.cls-17{fill:#a0aecd;}.cls-18{fill:#a3b5cf;}.cls-19{fill:#add2df;}.cls-20{fill:#a2b1d0;}.cls-21{fill:#9faeca;}.cls-22{fill:#b2d4e1;}.cls-23{fill:#abd9e2;}.cls-24{fill:#b2d7e3;}.cls-25{fill:#b3d9e5;}.cls-26{fill:#a3bbd5;}.cls-27{fill:#aecdde;}.cls-28{fill:#a2b8ca;}.cls-29{fill:#aac4d6;}.cls-30{fill:#a4b3cc;}.cls-31{fill:#add8df;}.cls-32{fill:#a6c8dc;}.cls-33{fill:#9db2c8;}.cls-34{fill:#9fb0ce;}.cls-35{fill:#aad3de;}.cls-36{fill:#a0b5ce;}.cls-37{fill:#a4c2d7;}.cls-38{fill:#a3bfd3;}.cls-39{fill:#a6c0d4;}.cls-40{fill:#b2dae3;}.cls-41{fill:#a8b7cd;}.cls-42{fill:#9cafcd;}.cls-43{fill:#add2de;}.cls-44{fill:#a0b2cb;}.cls-45{fill:#a7bdd4;}.cls-46{fill:#6fe5fd;}.cls-47{fill:#6de5fd;}.cls-48{fill:#72e4fd;}.cls-49{fill:#71e4fd;}.cls-50{font-size:404.72px;font-family:Poppins-Bold, Poppins;font-weight:700;}.cls-51{font-size:269.91px;}.cls-52{fill:none;}</style></defs><path class="cls-1" d="M1697.51,951.54a3,3,0,0,0,0-.6c-.28-2.8-.53-5.55-.81-8.34-.32-3-.65-6-1-8.9a704.33,704.33,0,0,0-94.91-280.92s0,0,0-.08a.44.44,0,0,1-.08-.17A710.86,710.86,0,0,0,1254,356.72c-2.1-.85-4.25-1.7-6.39-2.51l-.24-.12a703.11,703.11,0,0,0-104-31.2c-.85-.16-1.74-.37-2.59-.53a707.3,707.3,0,0,0-148.81-15.7V415.85a602,602,0,0,1,126.35,13.36c.81.16,1.66.36,2.51.52A597.79,597.79,0,0,1,1386.4,564a11.85,11.85,0,0,1,1.29,1.13c15.06,13.24,29.47,27.28,43.15,42A598,598,0,0,1,1591.11,1015c0,3.24,0,6.44-.08,9.64h109.19s0-.45,0-1.3v-.12c0-2.71,0-5.46,0-8.22Q1700.3,982.93,1697.51,951.54Z"/><path class="cls-1" d="M1632.34,1025.7c-12.78,0-25.56-.22-38.33.08-9.14.21-13.42-3.32-13.72-12.9-.32-10.17,5.18-12.92,13.65-12.92,26.21,0,52.42.33,78.63,0,9.44-.1,11.1,4.75,11,12.65s-1.81,13.3-10.93,13.27c-13.45,0-26.9,0-40.35,0Z"/><path class="cls-1" d="M483.34,1315.69c-.08,5.91-5.07,7.49-9,9.75-21.51,12.53-43.2,24.74-64.64,37.38-7.59,4.48-12.59,5.08-17.83-4-4.95-8.58-3.51-12.73,4.71-17.29,22.33-12.42,44.17-25.74,66.53-38.1C473.2,1297.89,483.73,1304.74,483.34,1315.69Z"/><path class="cls-1" d="M1594.07,673.43c.36,6.39-4.64,8-8.47,10.25-21.89,12.89-44,25.47-65.79,38.47-7.87,4.69-12.72,3.56-17.66-4.59-5.15-8.48-3.28-12.86,4.84-17.39,22.18-12.37,44.3-24.87,65.93-38.15C1588.1,652.71,1588.78,666.7,1594.07,673.43Z"/><path class="cls-1" d="M1003.9,1653.56c0,12.79-.27,25.58.09,38.36.26,9.34-3.18,13-13,13-10.29,0-12.36-4.57-12.22-13.54.4-24.89.59-49.81,0-74.69-.25-10.7,3.86-14.15,14.1-14.1,11,0,11.4,6.49,11.22,14.6-.26,12.11-.07,24.23-.07,36.34Z"/><path class="cls-2" d="M1003.9,368.79c0,12.79-.27,25.58.09,38.36.26,9.34-3.18,13-13,13-10.29,0-12.36-4.57-12.22-13.54.4-24.89.59-49.81,0-74.69-.25-10.7,3.86-14.15,14.1-14.1,11,0,11.4,6.49,11.22,14.6-.26,12.11-.07,24.23-.07,36.34Z"/><path class="cls-1" d="M651.74,1615.12c-5.77-5.32-21.65-4.06-11.27-20.36,13.7-21.53,26.15-43.88,38.44-66.26,4.69-8.53,8.84-9.36,17.29-4.73,8.89,4.88,9.08,9.4,4.37,17.27C687.45,1563,675,1585.23,662,1607.26,659.89,1610.93,658.92,1616.69,651.74,1615.12Z"/><path class="cls-1" d="M468.07,724.64c-6.06-3.38-13.12-7.28-20.15-11.24-17-9.58-33.93-19.37-51.09-28.71-7.9-4.3-11-8.82-5.35-17.49,5-7.65,10-9.72,18.21-4.77,21.93,13.17,44.14,25.9,66.27,38.74,5,2.87,9.7,5.86,5.61,12.49C478.63,718.43,477.66,725.69,468.07,724.64Z"/><path class="cls-1" d="M703.14,492.71c-.2,6.22-6,7.72-10.4,10.28-4.78,2.8-8.94,1.92-11.88-3.15-13.79-23.82-27.65-47.58-41.38-71.43-4.83-8.4,1.4-12.12,7.18-15.9,5.17-3.37,10-4.1,13.55,2.17q20.84,36.78,41.57,73.63A23.7,23.7,0,0,1,703.14,492.71Z"/><path class="cls-1" d="M1292.71,1520.82c7.23-2,8.28,4,10.39,7.55,12.91,21.94,25.24,44.22,38.34,66.05,4.83,8.06,4,12.7-4.28,17.74-8.43,5.14-12.72,3.39-17.26-4.83-12.32-22.28-24.77-44.53-38.2-66.16C1272.21,1525.89,1285.7,1525.4,1292.71,1520.82Z"/><path class="cls-1" d="M1579.72,1366.6c-2-1-5.09-2.36-8-4-21.42-12.43-42.48-25.51-64.32-37.13-10.1-5.37-9.25-10.5-4.66-18.86,5.22-9.52,11-6.74,17.77-2.63q31.8,19.18,63.77,38c5.5,3.25,10.76,6.43,6.93,14C1589,1360.53,1588,1366.62,1579.72,1366.6Z"/><path class="cls-1" d="M398.1,1022.65c-30.18,8.12-60.83,1.35-91.23,2.68-5.89.26-7.41-5-7.14-10.09.31-5.83-.5-12.14,7.85-14a62.54,62.54,0,0,1,33.68,1.06c5.6,14,16.44,16.44,30.22,15.31C380.41,1016.83,390.41,1015,398.1,1022.65Z"/><path class="cls-1" d="M398.1,1022.65c-11.22-.11-22.52-1.07-33.65-.13-15.42,1.3-27.84.71-23.19-20.27,14.48-.44,29-.61,43.45-1.37C402.92,999.92,404.6,1008.65,398.1,1022.65Z"/><path class="cls-3" d="M916.25,345c3.22-5-8.66-18.79,3-19.58,9.91-.67,8,14.12,8.89,23.08.8,7.89,2.73,15.68,3.25,23.58.31,4.85-1.84,9.56-7.87,9.38-4.71-.14-7-4-7.16-8.16C916,364.65,916.25,356,916.25,345Z"/><path class="cls-4" d="M347.75,951.19c-12.12-1.18-25.33-2.16-38.43-4-3.56-.49-8.09-2.75-6.05-8.16,1.29-3.43,4.67-5.48,8-4.56,13.06,3.59,26.45,2.36,39.67,3.53,5,.45,9.78,2.89,8.78,8.57C358.76,952.14,354.05,953.45,347.75,951.19Z"/><path class="cls-5" d="M334.85,1074.91c6.55,0,9.27-.29,11.89.07,4.74.65,12.36-2.57,12.39,5.61,0,5.28-6.08,6.05-10.94,6.52-11.93,1.15-23.83,2.69-35.78,3.71-4.22.36-8.64-1.45-9.41-5.83-1-5.61,4.28-5.41,8-6.45C320.08,1076,329.27,1074.54,334.85,1074.91Z"/><path class="cls-6" d="M863.14,378.47c0,6.21.78,12.18-4.81,13.52-6.6,1.58-6.86-5-7.83-9.2q-4.05-17.55-7.26-35.29c-.73-4-.13-8.8,4.55-10,5.36-1.38,6.37,3.47,7.32,7.3C858,356.48,860.7,368.21,863.14,378.47Z"/><path class="cls-7" d="M519,584.48c-2.7,7.2-7.94,5.63-12.29,1.7-9.49-8.57-18.52-17.66-27.52-26.74-2.94-3-5.42-6.91.42-9.44C486.51,547,520,575.92,519,584.48Z"/><path class="cls-8" d="M1455.68,1522.36c-1.86,5.91-6,7.15-10.24,2.87-9.79-9.87-19.12-20.22-28.31-30.66-2-2.26-4.14-5.78-1.09-8.85,1.11-1.13,3.55-1.54,5.29-1.34C1426.39,1484.94,1455.8,1517.52,1455.68,1522.36Z"/><path class="cls-9" d="M710.86,380a15.85,15.85,0,0,1,3.82.71c2.68,1.18,23,43.53,22.09,46.13-2.25,6.4-8.13,6.54-10.76,2.53a144.49,144.49,0,0,1-18.94-43.64C706.37,383,707.4,380.48,710.86,380Z"/><path class="cls-10" d="M1553.07,1416.77c-2,4.44-4.92,7.1-9.37,4.18-12.75-8.36-25.34-17-37.83-25.72a5.24,5.24,0,0,1-1.58-7.1c1.89-3.43,4.63-4.51,8.22-2.49,13.32,7.52,26.1,15.81,37.26,26.35C1551.16,1413.31,1552,1415.21,1553.07,1416.77Z"/><path class="cls-11" d="M1620.35,884.62c-2.29-.06-6.81.52-7.65-5a5,5,0,0,1,4.1-6c14.44-2.79,28.17-9.11,43.23-8.72,3.51.09,6.87,1,7.33,5.16s-2.35,5.89-5.95,6.6C1648.28,879.23,1635.13,881.76,1620.35,884.62Z"/><path class="cls-12" d="M431.53,609.86c.54-4.43,3.5-7.83,7.81-5,12.64,8.41,24.86,17.48,36.84,26.82,3.38,2.64,1.19,6.34-2.1,7.91C467.61,642.71,431.83,617.82,431.53,609.86Z"/><path class="cls-13" d="M1420,540.85c-5.55-.91-6.94-4.33-3.62-8.36,8.9-10.8,18.1-21.38,27.62-31.64,3.75-4,8.55-5.19,9.78,2.39C1455,510.52,1427.13,541.09,1420,540.85Z"/><path class="cls-14" d="M1655.78,1160.55c-12.5-2.89-24.9-5.74-37.29-8.62-3.59-.84-6.39-2.76-5.64-6.85,1-5.6,5.21-4.92,9.35-4.09q17.7,3.55,35.42,7c4.47.86,10.6.33,9.62,7.2C1666.3,1161.82,1660,1159.18,1655.78,1160.55Z"/><path class="cls-15" d="M1368.23,1525.25c1.59,1.27,4,2.51,5.38,4.44,8.38,11.31,16.56,22.76,24.75,34.2,1.62,2.27,2.59,4.78.26,7.19-2.17,2.23-5.55,2.65-7.17.6-9.93-12.56-19.74-25.24-28.9-38.35C1360.47,1530.35,1364,1527.3,1368.23,1525.25Z"/><path class="cls-16" d="M412.6,751.84c-1.52,5.59-5.11,7.92-10.4,5.54-13.35-6-26.53-12.38-39.77-18.6-2.76-1.29-4.45-3.55-2.69-6.2,1.28-1.91,4.64-4.57,5.89-4.05,15.23,6.31,30.25,13.11,45.25,19.94C411.77,748.88,412,750.67,412.6,751.84Z"/><path class="cls-17" d="M843.42,1679.53c2.68-12.82,5-24,7.34-35.15.93-4.41.55-10.88,7.23-9.78,7.79,1.29,5.45,8.28,4.56,13.15-2.06,11.2-5,22.24-7.35,33.38-.88,4.1-1.67,8.67-7,7.94C841.17,1688.09,844.18,1682,843.42,1679.53Z"/><path class="cls-18" d="M1467.77,1436.15c14.82,9,26.53,20.74,37.5,33.24.87,1,.38,4-.52,5.48-1.49,2.4-4.59,3.6-6.83,1.65-11.49-10-22.83-20.18-33.88-30.66-1.39-1.32-1.27-4.94-.76-7.25C1463.53,1437.49,1466.28,1436.91,1467.77,1436.15Z"/><path class="cls-19" d="M356.56,884.57c-12.35-2.9-24.14-5.52-35.85-8.51-3.26-.84-6.37-3-5.87-7,.57-4.63,4.79-4.63,7.81-4.09,13.84,2.51,27.62,5.4,41.37,8.39,3.72.81,6,3.63,4.29,7.45C365.8,886.48,360.45,884.49,356.56,884.57Z"/><path class="cls-20" d="M1068.83,1686.81c.3,6.65.59,12.28-5.24,13.34-7.54,1.36-5.68-5.51-6.58-9.59-2.6-11.8-4.47-23.69-3.79-35.84.23-4.09.48-8.82,5.81-8.74,5,.08,5.79,4.66,6.09,8.81C1066,1666.13,1065,1677.66,1068.83,1686.81Z"/><path class="cls-21" d="M1138.57,1678.55c-.45,4,1.41,9-4.17,10-5.16.93-6.67-3.48-7.55-7.36-2.79-12.3-5.44-24.64-7.84-37-.75-3.86-1.19-8.51,4.21-9.57s6.38,3.09,7.26,7.21C1133.11,1654.16,1135.9,1666.46,1138.57,1678.55Z"/><path class="cls-22" d="M1568.46,755.54c14.16-16.78,29.89-18.25,42.31-25.69,3.93-2.35,8-2.4,10.57,1.71,3,4.73-.58,7.29-4.35,9.26C1603.25,748,1589.42,754.92,1568.46,755.54Z"/><path class="cls-23" d="M1469.3,588.83c-3,.44-5.79-.42-6.22-3.42-.34-2.38.14-5.89,1.71-7.36,9.79-9.18,19.74-18.24,30.18-26.65,3.58-2.89,9.25-4.57,10.31,3.17C1505.79,558.37,1473.6,588.51,1469.3,588.83Z"/><path class="cls-24" d="M533.67,498.66c4.56.21,34.36,32.44,33.65,36.48-1.22,6.92-6.78,7.35-10.32,3.77a379.63,379.63,0,0,1-27.7-31.71C526.31,503.41,528.94,499.69,533.67,498.66Z"/><path class="cls-2" d="M1399.12,461.93c-8.64,11.17-18.33,23.83-28.3,36.26-.73.9-4.37.85-5.3-.1-1.65-1.68-3.8-5.49-3.08-6.5,9.31-12.91,18.64-25.87,29.1-37.83C1393.91,451.05,1399,454.22,1399.12,461.93Z"/><path class="cls-25" d="M621.05,502.44c-20-10.66-26.37-26.89-37-39.07-2.12-2.42-3.1-6.19.52-8.81,4.34-3.14,8-.74,10.26,2.63C603.56,470.16,615.11,481.54,621.05,502.44Z"/><path class="cls-26" d="M436.39,1421c-.95-.58-3.06-1.2-4.05-2.62-2.28-3.24-1.24-6.49,1.8-8.66q17.06-12.16,34.35-24c2.26-1.55,5.21-2.1,7.16.5a8.15,8.15,0,0,1,1.43,5.32C476.72,1394.58,440.36,1421.13,436.39,1421Z"/><path class="cls-27" d="M1644.61,950.13c-4,0-8,.12-12,0-3.36-.14-7.09-.56-7.27-4.91-.16-3.94,3.07-6.09,6.37-6.44,13.83-1.46,27.71-2.67,41.59-3.39,1.74-.09,4.64,2.95,5.25,5.06.78,2.71-1.74,4.29-4.48,5.4C1664.56,949.67,1654.63,950,1644.61,950.13Z"/><path class="cls-28" d="M481.21,1475.86c-1.07-.57-4.11-1.36-4.2-2.41-.21-2.34.29-5.62,1.85-7.08,10.29-9.65,20.91-18.95,31.5-28.27,2.11-1.86,4.91-2.85,7.11-.49A7.61,7.61,0,0,1,519,1443C518.46,1448.63,487.63,1475.77,481.21,1475.86Z"/><path class="cls-29" d="M326.2,1160c-4.91.15-9.53.06-10.42-4.83-1-5.26,3.67-6.05,7.6-6.9,12.29-2.65,24.54-5.51,36.87-7.91,4.09-.79,8.44.07,8.61,5.47.13,3.84-3,5.45-6.5,6.22C350,1154.69,337.75,1157.44,326.2,1160Z"/><path class="cls-30" d="M712.73,1645.06c-4.49-.49-7.06-2.7-6-5.29q9.22-22.23,19.58-44c.69-1.44,4.81-2.24,7-1.75,2.9.66,3.66,3.62,2.41,6.44-6,13.47-11.91,27-18.19,40.3C716.56,1642.81,713.89,1644.06,712.73,1645.06Z"/><path class="cls-31" d="M1509.8,641.07c-1-.57-3-1.2-4.14-2.58-2-2.48-.84-5.24,1.31-6.88,11-8.37,21.92-16.9,33.42-24.55,3.68-2.46,9.69-3.16,9.22,4.72C1549.32,616.52,1515.76,641.39,1509.8,641.07Z"/><path class="cls-32" d="M1646.47,1075c6.34,1,16.13,2.56,25.91,4.16,3.35.54,7,1.34,6.15,5.82-.69,3.75-3.72,5.17-7.46,4.88q-17.8-1.35-35.61-2.74c-4.58-.35-10.53,0-10.8-6-.29-6.54,5.73-5.89,10.28-6.07C1637.6,1074.89,1640.25,1075,1646.47,1075Z"/><path class="cls-33" d="M1252.87,1593.88c1.17,1,3.86,2.19,4.83,4.23q9,18.87,17.33,38.11c1.36,3.14,1,7.08-3,8-2.07.5-6.16-.62-6.82-2.12-6.16-14-11.92-28.08-17.39-42.31C1247,1597.67,1247.88,1594.48,1252.87,1593.88Z"/><path class="cls-34" d="M779.57,1669.22c-6.26-.92-6.12-5.6-5-9.16,3.83-12.72,8.17-25.31,12.75-37.78.72-2,3.55-4,5.68-4.38,2.71-.45,5.75,2,4.94,4.78-4.32,14.56-9.08,29-14,43.36C783.41,1667.51,780.9,1668.29,779.57,1669.22Z"/><path class="cls-35" d="M343.9,796.17c11.07,3.71,24.4,8.09,37.65,12.66a5.34,5.34,0,0,1,3.66,6.32c-.74,4.23-4,5.44-7.46,4.34-13.32-4.26-26.57-8.74-39.69-13.57a5.17,5.17,0,0,1-3.06-6.64C336.1,796.25,338.72,795.92,343.9,796.17Z"/><path class="cls-36" d="M929.12,1667.8c-1.39,8.49-2.6,17-4.24,25.45-.72,3.7-1.3,8.62-7.11,7-3.63-1-4.84-4.2-4.41-7.9,1.28-11.19,2-22.5,4.11-33.53.86-4.5-.13-12.93,7.16-12.2,7.78.79,4.21,8.1,4,13l-.36,8Z"/><path class="cls-37" d="M1606.14,1206.1c10.84,3.72,24.18,8.13,37.37,13a5.1,5.1,0,0,1,3.29,6.51,5,5,0,0,1-6.43,3.26c-13.45-4-26.82-8.28-40.16-12.63-3.86-1.26-5-4.44-3.39-8C1598,1205.69,1600.68,1204.77,1606.14,1206.1Z"/><path class="cls-38" d="M409.18,1275.94c-1.42,1.27-3.07,3.61-5.32,4.61-13.82,6.11-26.76,14.69-42.39,15.76-.68,0-2.67-4-2.19-4.59,10.42-12.32,26.14-14.87,39.86-21.14a14,14,0,0,1,5.81-.87C408.26,1269.76,409.33,1272,409.18,1275.94Z"/><path class="cls-39" d="M1622.68,1290.69c-1.86,4.82-4.79,7.41-9.4,5.45-12.22-5.19-24.33-10.65-36.4-16.19-3.2-1.47-5.71-4.29-4-7.9s5.77-3.64,8.73-2.43c12.89,5.28,25.64,10.92,38.31,16.7C1621.31,1287,1621.89,1289.37,1622.68,1290.69Z"/><path class="cls-40" d="M798.32,400.65c-.84,1.51-1.5,4.57-3.32,5.61-3.3,1.88-6.64.46-7.93-3.29-4.35-12.59-8.63-25.22-12.53-38-.91-3-1-7.06,3.11-8.35s6.37,1.81,7.48,4.93C789.58,374.14,793.68,386.82,798.32,400.65Z"/><path class="cls-41" d="M621.15,1532.42c-9.62,12.68-19.23,25.49-29.13,38.07-.8,1-4.89,1.16-5.32.43-1.21-2-2.6-5.59-1.64-7q12.32-18.32,25.68-35.92c1.14-1.5,4.81-1.74,7.13-1.39C619,1526.75,619.68,1529.65,621.15,1532.42Z"/><path class="cls-42" d="M1207.09,1659c.69,6.14.47,10.53-4.47,11.53-4.29.86-5.15-3.66-6.06-6.47-4.12-12.66-7.81-25.46-11.71-38.2-1-3.41-1.6-6.74,2.84-7.91,4-1.07,6,1.4,7.18,4.95C1199.1,1635.51,1203.41,1648.12,1207.09,1659Z"/><path class="cls-43" d="M1647,801.32c-1.41,4.31-5,6.2-8.85,7.47q-16.2,5.26-32.5,10.28c-3.26,1-6.76,1.59-8.47-2.46-1.32-3.12,1-5.33,3.17-6.65,12.82-7.82,27.48-10.23,41.78-13.53C1645.16,795.72,1646.77,798.27,1647,801.32Z"/><path class="cls-44" d="M566.89,1487.61c.3,5.43-29.68,39.43-33.8,39.66-5.89.33-7.43-4.5-4.88-7.67,9.54-11.85,19.7-23.27,30.32-34.17C562,1481.91,565.59,1484.68,566.89,1487.61Z"/><path class="cls-45" d="M385.57,1211.13c-.74,1.17-1.41,3.72-2.8,4.2q-20.61,7.13-41.45,13.53c-2.39.73-5.66,0-6.14-3.24a5.93,5.93,0,0,1,2.23-4.79c13.08-8.43,28.68-9.88,43-14.93C383.17,1204.92,385.13,1207.43,385.57,1211.13Z"/><path class="cls-46" d="M1138.68,349.45c-2.47,10.63-5.31,23-8.23,35.31-.84,3.53-2.64,6.33-6.84,5.67-4.61-.72-4.23-3.88-3.58-7.51,2.25-12.48,4.26-25,6.29-37.53.68-4.23,2.36-8.88,6.74-8.72C1139.94,336.92,1137.92,343.24,1138.68,349.45Z"/><path class="cls-47" d="M1275.09,388.08a173.56,173.56,0,0,1-17.71,39.29c-1,1.68-4.83,3.13-6.64,2.54-3.76-1.23-4-5.67-2.77-8.39,5.61-12.7,11.64-25.23,18-37.57.87-1.7,4.54-3.11,6.59-2.76C1275.44,381.68,1275.7,384.86,1275.09,388.08Z"/><path class="cls-48" d="M1069.31,339.92c-3.34,9.53-3.79,20.18-4.15,30.87-.14,4.26-1.65,8.13-7,7.38-4.25-.59-4.56-4.37-4.72-7.68-.56-11.38-.27-22.66,3.38-33.67,1.41-4.23.61-10.5,7.52-9.23C1070.63,328.76,1068.85,334.7,1069.31,339.92Z"/><path class="cls-49" d="M1189.75,407.1c-6-.7-7.16-4.32-5.78-8.67,4-12.71,8.2-25.36,12.81-37.86.68-1.84,4-3.55,6.21-3.8,3.48-.38,4.37,3.18,4.06,5.6-1.86,14.66-7.47,28.22-13,41.75C1193.43,405.59,1191,406.29,1189.75,407.1Z"/><path class="cls-2" d="M1348.42,411.38c3.27,5.5-.41,9.24-2.77,13-13.46,21.54-27.22,42.9-40.56,64.51-4.82,7.8-9.63,9-17.79,4.1-8.48-5.14-8.85-9.89-3.74-17.66,14-21.22,27.79-42.53,40.84-64.3C1333.55,395.77,1340.62,407.86,1348.42,411.38Z"/><text class="cls-50" transform="translate(873.93 970.26)">3<tspan class="cls-51"><tspan x="-286.21" y="323.89">Hours</tspan></tspan></text><path class="cls-52" d="M1700,1011.65v.12c0,.85,0,1.29,0,1.29h-109.2a724.24,724.24,0,0,0-4.69-85.59c-12.51-107.3-56.06-252-198.64-373.93a10.92,10.92,0,0,0-1.3-1.13c-1.32-1.16-2.69-2.27-4-3.42-89.88-75.25-182.31-111.69-254.63-129.22-2.32-.54-4.62-1.14-7-1.65-.84-.16-1.69-.36-2.5-.52-75.12-16.92-126.36-13.36-126.36-13.36V295c59.7,1.38,109.48,7.9,148.82,15.71.85.16,1.74.36,2.59.52,65,13.16,100.65,29.63,104,31.21l.24.12c2.15.81,4.29,1.66,6.4,2.51,251.09,98.63,343.85,289.82,346.69,295.81a.44.44,0,0,0,.08.16s0,0,0,.08c63,96.77,86.45,206,94.9,280.92.33,3,.65,5.95,1,8.91.28,2.79.52,5.54.8,8.33a2.56,2.56,0,0,1,0,.61C1700.79,978.66,1700.22,1005.37,1700,1011.65Z"/></svg>