<svg id="Слой_1" data-name="Слой 1" xmlns="http://www.w3.org/2000/svg" viewBox="0 0 2000 2000"><defs><style>.cls-1,.cls-50{fill:#36a3fd;}.cls-2{fill:#b2dae4;}.cls-3{fill:#b6deeb;}.cls-4{fill:#afd0e0;}.cls-5{fill:#abcee3;}.cls-6{fill:#afdfe5;}.cls-7{fill:#b3d7e4;}.cls-8{fill:#a4b6d1;}.cls-9{fill:#b5dbe3;}.cls-10{fill:#b7c5d7;}.cls-11{fill:#aed3e1;}.cls-12{fill:#b3d4e6;}.cls-13{fill:#b1d8e3;}.cls-14{fill:#acc6d8;}.cls-15{fill:#a3b3cc;}.cls-16{fill:#b0d6de;}.cls-17{fill:#a0aecd;}.cls-18{fill:#a3b5cf;}.cls-19{fill:#add2df;}.cls-20{fill:#a2b1d0;}.cls-21{fill:#9faeca;}.cls-22{fill:#b2d4e1;}.cls-23{fill:#abd9e2;}.cls-24{fill:#b2d7e3;}.cls-25{fill:#b3d9e5;}.cls-26{fill:#a3bbd5;}.cls-27{fill:#aecdde;}.cls-28{fill:#a2b8ca;}.cls-29{fill:#aac4d6;}.cls-30{fill:#a4b3cc;}.cls-31{fill:#add8df;}.cls-32{fill:#a6c8dc;}.cls-33{fill:#9db2c8;}.cls-34{fill:#9fb0ce;}.cls-35{fill:#aad3de;}.cls-36{fill:#a0b5ce;}.cls-37{fill:#a4c2d7;}.cls-38{fill:#a3bfd3;}.cls-39{fill:#a6c0d4;}.cls-40{fill:#b2dae3;}.cls-41{fill:#a8b7cd;}.cls-42{fill:#9cafcd;}.cls-43{fill:#add2de;}.cls-44{fill:#a0b2cb;}.cls-45{fill:#a7bdd4;}.cls-46{fill:#6fe5fd;}.cls-47{fill:#6de5fd;}.cls-48{fill:#72e4fd;}.cls-49{fill:#71e4fd;}.cls-50{font-size:399.35px;font-family:Poppins-Bold, Poppins;font-weight:700;}.cls-51{font-size:266.33px;}.cls-52{fill:none;}</style></defs><path class="cls-1" d="M1487.64,520.33c-.76-.72-1.47-1.44-2.23-2.2-108.79-108.18-252.91-180.82-413.57-199a4.41,4.41,0,0,0-.72-.08,702.54,702.54,0,0,0-78.67-4.39V422.45a596.57,596.57,0,0,1,101,8.58,585.91,585.91,0,0,1,98.8,26c.2.08.36.12.48.16l.68.24c1.44.52,2.88,1,4.31,1.6,6,2.19,11.95,4.51,17.82,6.95a592.64,592.64,0,0,1,280.74,238.09c1.12,1.8,2.24,3.59,3.27,5.31q13.49,22.41,25,46a.44.44,0,0,0,.08.16c1.48,3.08,2.92,6.11,4.32,9.19a578.37,578.37,0,0,1,32.94,89.09c.52,1.88,1,3.72,1.56,5.56.56,2.07,1.12,4.19,1.68,6.27,0,.16,0,.28.08.39a595.66,595.66,0,0,1,.32,293.89.63.63,0,0,0,0,.16s0,.12,0,.16a586.42,586.42,0,0,1-36.9,103.15c-1,2.23-2.08,4.47-3.16,6.67a593.9,593.9,0,0,1-241.93,258.34.44.44,0,0,0-.15.08l54.51,93c.2-.12.44-.2.64-.32a702.81,702.81,0,0,0,256-251.87,4.36,4.36,0,0,1,.24-.44A695.26,695.26,0,0,0,1688,1083.57q3.4-34.5,3.43-69.89C1691.43,821.12,1613.56,646.76,1487.64,520.33Z"/><path class="cls-1" d="M1623.52,1025.34c-12.61,0-25.22-.22-37.82.08-9,.21-13.25-3.28-13.54-12.73-.32-10,5.11-12.75,13.47-12.75,25.86,0,51.73.33,77.59,0,9.31-.11,11,4.67,10.9,12.47s-1.78,13.12-10.79,13.1c-13.27,0-26.54,0-39.81,0Z"/><path class="cls-1" d="M489.78,1311.48c-.09,5.83-5,7.39-8.85,9.62-21.23,12.36-42.63,24.41-63.79,36.89-7.49,4.42-12.43,5-17.59-3.94-4.89-8.46-3.47-12.55,4.64-17.06,22-12.24,43.59-25.39,65.65-37.58C479.77,1293.92,490.16,1300.68,489.78,1311.48Z"/><path class="cls-1" d="M1585.76,677.74c.35,6.31-4.58,7.9-8.36,10.12-21.6,12.71-43.38,25.13-64.91,38-7.77,4.63-12.55,3.51-17.43-4.53-5.08-8.36-3.24-12.69,4.78-17.16,21.88-12.2,43.7-24.54,65.05-37.64C1579.87,657.3,1580.54,671.11,1585.76,677.74Z"/><path class="cls-1" d="M1003.42,1644.87c0,12.61-.27,25.24.09,37.84.26,9.22-3.13,12.86-12.81,12.87-10.15,0-12.19-4.51-12.05-13.37.39-24.56.58-49.14,0-73.7-.25-10.56,3.8-14,13.91-13.91,10.84,0,11.25,6.41,11.07,14.41-.26,12-.06,23.9-.06,35.86Z"/><path class="cls-2" d="M1003.42,377.15c0,12.62-.27,25.24.09,37.85.26,9.22-3.13,12.86-12.81,12.86-10.15,0-12.19-4.51-12.05-13.36.39-24.57.58-49.15,0-73.71-.25-10.55,3.8-14,13.91-13.91,10.84.05,11.25,6.41,11.07,14.41-.26,11.95-.06,23.91-.06,35.86Z"/><path class="cls-1" d="M655.93,1606.93c-5.69-5.25-21.35-4-11.12-20.09,13.52-21.24,25.81-43.29,37.94-65.38,4.62-8.41,8.72-9.23,17.06-4.66,8.76,4.81,9,9.27,4.31,17-12.94,21.62-25.27,43.6-38,65.34C664,1602.8,663,1608.48,655.93,1606.93Z"/><path class="cls-1" d="M474.71,728.27c-6-3.33-12.95-7.18-19.89-11.08-16.8-9.46-33.48-19.12-50.41-28.33-7.79-4.25-10.89-8.71-5.28-17.26,4.95-7.55,9.83-9.6,18-4.71,21.64,13,43.56,25.55,65.4,38.23,4.88,2.83,9.56,5.78,5.53,12.32C485.13,722.15,484.17,729.31,474.71,728.27Z"/><path class="cls-1" d="M706.66,499.42c-.2,6.14-5.92,7.62-10.26,10.15-4.73,2.76-8.83,1.9-11.73-3.11-13.6-23.5-27.29-46.95-40.83-70.48-4.77-8.29,1.38-12,7.09-15.69,5.1-3.33,9.85-4.05,13.36,2.14q20.57,36.3,41,72.66A23.86,23.86,0,0,1,706.66,499.42Z"/><path class="cls-1" d="M1288.4,1513.89c7.13-2,8.17,3.91,10.25,7.44,12.74,21.65,24.91,43.64,37.83,65.18,4.77,8,3.92,12.53-4.22,17.5-8.32,5.08-12.55,3.35-17-4.76-12.16-22-24.44-43.94-37.69-65.28C1268.17,1518.89,1281.48,1518.4,1288.4,1513.89Z"/><path class="cls-1" d="M1571.6,1361.71c-2-1-5-2.33-7.85-4-21.13-12.26-41.91-25.17-63.46-36.63-10-5.3-9.13-10.36-4.6-18.61,5.15-9.39,10.82-6.65,17.54-2.59q31.37,18.91,62.92,37.53c5.43,3.21,10.61,6.34,6.83,13.8C1580.71,1355.72,1579.77,1361.74,1571.6,1361.71Z"/><path class="cls-1" d="M405.67,1022.33c-29.79,8-60,1.33-90,2.64-5.81.26-7.31-5-7-10,.3-5.75-.49-12,7.74-13.86a61.72,61.72,0,0,1,33.24,1.05c5.53,13.8,16.22,16.22,29.82,15.11C388.21,1016.59,398.07,1014.77,405.67,1022.33Z"/><path class="cls-1" d="M405.67,1022.33c-11.08-.11-22.22-1.06-33.21-.13-15.22,1.29-27.47.7-22.88-20,14.29-.43,28.6-.6,42.88-1.35C410.42,999.9,412.08,1008.52,405.67,1022.33Z"/><path class="cls-3" d="M916.93,353.65c3.19-4.89-8.54-18.54,3-19.32,9.77-.66,7.88,13.94,8.77,22.77.79,7.79,2.69,15.48,3.2,23.28.32,4.78-1.81,9.43-7.76,9.25-4.65-.14-6.88-3.95-7.06-8.05C916.66,373.06,916.93,364.51,916.93,353.65Z"/><path class="cls-4" d="M356,951.82c-12-1.17-25-2.13-37.92-3.9-3.51-.48-8-2.72-6-8.06,1.27-3.38,4.61-5.39,7.91-4.49,12.88,3.55,26.1,2.33,39.14,3.49,5,.44,9.65,2.84,8.67,8.45C366.85,952.76,362.2,954.05,356,951.82Z"/><path class="cls-5" d="M343.26,1073.9c6.46,0,9.14-.29,11.73.06,4.67.64,12.19-2.53,12.22,5.54,0,5.21-6,6-10.79,6.44-11.78,1.13-23.52,2.65-35.3,3.65-4.17.36-8.53-1.43-9.29-5.75-1-5.53,4.22-5.33,7.89-6.36C328.68,1075,337.75,1073.53,343.26,1073.9Z"/><path class="cls-6" d="M864.53,386.7c0,6.13.77,12-4.75,13.34-6.5,1.56-6.77-4.92-7.72-9.08q-4-17.31-7.17-34.82c-.72-4-.12-8.68,4.49-9.87,5.3-1.36,6.3,3.42,7.23,7.2C859.45,365,862.13,376.57,864.53,386.7Z"/><path class="cls-7" d="M524.91,590c-2.66,7.1-7.83,5.55-12.13,1.67-9.36-8.45-18.27-17.42-27.16-26.39-2.89-2.92-5.34-6.81.42-9.31C492.9,553,526,581.53,524.91,590Z"/><path class="cls-8" d="M1449.21,1515.4c-1.84,5.84-5.92,7.06-10.11,2.84-9.66-9.74-18.86-20-27.93-30.25-2-2.24-4.08-5.71-1.08-8.74,1.1-1.11,3.51-1.51,5.22-1.32C1420.31,1478.48,1449.32,1510.63,1449.21,1515.4Z"/><path class="cls-9" d="M714.27,388.22a16,16,0,0,1,3.78.7c2.64,1.16,22.7,42.95,21.79,45.52-2.22,6.31-8,6.46-10.61,2.49a142.42,142.42,0,0,1-18.7-43.06C709.84,391.18,710.86,388.68,714.27,388.22Z"/><path class="cls-10" d="M1545.3,1411.22c-2,4.38-4.85,7-9.25,4.12-12.58-8.25-25-16.75-37.33-25.37a5.18,5.18,0,0,1-1.55-7c1.86-3.39,4.57-4.46,8.11-2.46,13.14,7.42,25.75,15.6,36.76,26C1543.42,1407.81,1544.26,1409.68,1545.3,1411.22Z"/><path class="cls-11" d="M1611.69,886.13c-2.26-.06-6.72.51-7.55-5a5,5,0,0,1,4-5.88c14.24-2.75,27.79-9,42.65-8.61,3.46.09,6.78.94,7.23,5.1s-2.32,5.81-5.86,6.51C1639.24,880.81,1626.28,883.31,1611.69,886.13Z"/><path class="cls-12" d="M438.65,615c.54-4.37,3.45-7.73,7.71-4.89,12.47,8.3,24.53,17.25,36.35,26.46,3.34,2.6,1.17,6.26-2.08,7.8C474.25,647.43,439,622.87,438.65,615Z"/><path class="cls-13" d="M1414,546.92c-5.47-.89-6.85-4.27-3.57-8.25,8.78-10.65,17.86-21.09,27.25-31.21,3.7-4,8.44-5.13,9.65,2.35C1448.49,517,1421,547.16,1414,546.92Z"/><path class="cls-14" d="M1646.65,1158.4c-12.34-2.85-24.57-5.66-36.79-8.51-3.55-.83-6.31-2.72-5.57-6.75,1-5.53,5.14-4.86,9.23-4q17.46,3.51,34.94,6.88c4.42.84,10.46.32,9.5,7.1C1657,1159.65,1650.79,1157.05,1646.65,1158.4Z"/><path class="cls-15" d="M1362.92,1518.25c1.56,1.26,3.89,2.48,5.3,4.39,8.27,11.16,16.34,22.46,24.43,33.75,1.6,2.23,2.56,4.72.25,7.09-2.14,2.2-5.47,2.62-7.07.59-9.8-12.39-19.48-24.9-28.52-37.84C1355.26,1523.29,1358.72,1520.28,1362.92,1518.25Z"/><path class="cls-16" d="M420,755.11c-1.5,5.52-5,7.82-10.26,5.47-13.17-5.91-26.18-12.21-39.25-18.35-2.71-1.28-4.38-3.51-2.65-6.12,1.26-1.89,4.58-4.51,5.82-4,15,6.23,29.84,12.94,44.65,19.68C419.16,752.19,419.41,754,420,755.11Z"/><path class="cls-17" d="M845.08,1670.49c2.64-12.65,4.92-23.67,7.23-34.68.92-4.35.55-10.74,7.14-9.66,7.68,1.27,5.38,8.17,4.5,13-2,11-4.9,21.94-7.26,32.94-.87,4-1.64,8.55-6.87,7.83C842.86,1678.93,845.82,1673,845.08,1670.49Z"/><path class="cls-18" d="M1461.13,1430.34c14.63,8.9,26.18,20.47,37,32.79.85,1,.38,4-.51,5.42-1.48,2.37-4.54,3.54-6.74,1.62-11.34-9.86-22.54-19.91-33.44-30.25-1.37-1.3-1.25-4.87-.75-7.15C1457,1431.66,1459.66,1431.09,1461.13,1430.34Z"/><path class="cls-19" d="M364.67,886.08c-12.18-2.86-23.82-5.45-35.36-8.4-3.22-.82-6.29-2.94-5.8-6.92.56-4.56,4.73-4.56,7.71-4,13.66,2.47,27.25,5.32,40.82,8.28,3.66.79,5.91,3.57,4.23,7.35C373.79,888,368.52,886,364.67,886.08Z"/><path class="cls-20" d="M1067.49,1677.67c.3,6.57.58,12.12-5.17,13.16-7.44,1.35-5.6-5.43-6.49-9.45-2.57-11.65-4.41-23.38-3.74-35.37.23-4,.47-8.71,5.73-8.63,5,.08,5.71,4.6,6,8.7C1064.66,1657.26,1063.69,1668.65,1067.49,1677.67Z"/><path class="cls-21" d="M1136.31,1669.52c-.45,3.91,1.39,8.9-4.12,9.89-5.09.92-6.58-3.43-7.45-7.26-2.75-12.14-5.36-24.32-7.73-36.54-.74-3.8-1.18-8.39,4.15-9.43s6.29,3,7.16,7.11C1130.92,1645.46,1133.67,1657.6,1136.31,1669.52Z"/><path class="cls-22" d="M1560.49,758.77c14-16.56,29.49-18,41.75-25.36,3.87-2.31,7.91-2.36,10.43,1.69,2.91,4.67-.58,7.2-4.3,9.14C1594.82,751.34,1581.17,758.15,1560.49,758.77Z"/><path class="cls-23" d="M1462.64,594.27c-2.93.43-5.71-.42-6.13-3.38-.34-2.34.14-5.81,1.68-7.26,9.66-9.06,19.48-18,29.79-26.3,3.53-2.84,9.12-4.51,10.16,3.13C1498.65,564.21,1466.89,594,1462.64,594.27Z"/><path class="cls-24" d="M539.44,505.29c4.49.21,33.9,32,33.19,36-1.2,6.83-6.68,7.26-10.17,3.72a373.1,373.1,0,0,1-27.34-31.29C532.17,510,534.76,506.31,539.44,505.29Z"/><path class="cls-2" d="M1393.39,469.06c-8.52,11-18.08,23.51-27.92,35.77-.72.89-4.31.84-5.23-.09-1.63-1.67-3.75-5.43-3-6.42,9.19-12.74,18.4-25.53,28.72-37.33C1388.25,458.32,1393.28,461.45,1393.39,469.06Z"/><path class="cls-25" d="M625.66,509c-19.75-10.52-26-26.54-36.55-38.55-2.1-2.4-3.06-6.11.51-8.7,4.29-3.1,7.88-.73,10.13,2.59C608.4,477.17,619.79,488.4,625.66,509Z"/><path class="cls-26" d="M443.45,1415.41c-.94-.57-3-1.19-4-2.58-2.25-3.21-1.23-6.41,1.78-8.55q16.83-12,33.89-23.66c2.23-1.53,5.14-2.08,7.06.49a8,8,0,0,1,1.41,5.25C483.25,1389.32,447.36,1415.52,443.45,1415.41Z"/><path class="cls-27" d="M1635.62,950.77c-3.94,0-7.9.12-11.84,0-3.31-.13-7-.55-7.17-4.85-.15-3.88,3-6,6.28-6.35,13.66-1.44,27.35-2.63,41-3.35,1.72-.09,4.58,2.92,5.18,5,.77,2.67-1.72,4.23-4.43,5.33C1655.31,950.32,1645.51,950.66,1635.62,950.77Z"/><path class="cls-28" d="M487.67,1469.53c-1.06-.57-4.05-1.35-4.14-2.39-.21-2.3.28-5.54,1.82-7,10.16-9.52,20.63-18.7,31.08-27.9,2.09-1.83,4.85-2.8,7-.48a7.53,7.53,0,0,1,1.51,5.3C524.42,1442.65,494,1469.43,487.67,1469.53Z"/><path class="cls-29" d="M334.72,1157.85c-4.85.15-9.4.05-10.29-4.77-.95-5.19,3.63-6,7.51-6.81,12.12-2.61,24.21-5.43,36.38-7.8,4-.78,8.33.06,8.5,5.39.12,3.79-2.92,5.39-6.43,6.14C358.24,1152.61,346.12,1155.33,334.72,1157.85Z"/><path class="cls-30" d="M716.12,1636.48c-4.43-.49-7-2.66-5.91-5.22q9.12-21.94,19.33-43.41c.67-1.42,4.75-2.21,6.89-1.72,2.86.64,3.61,3.57,2.38,6.35-5.9,13.29-11.76,26.61-18,39.76C719.9,1634.26,717.27,1635.49,716.12,1636.48Z"/><path class="cls-31" d="M1502.6,645.82c-.95-.57-3-1.19-4.08-2.55-2-2.45-.83-5.18,1.29-6.79,10.86-8.26,21.64-16.67,33-24.23,3.63-2.42,9.56-3.11,9.09,4.67C1541.6,621.59,1508.48,646.13,1502.6,645.82Z"/><path class="cls-32" d="M1637.46,1074c6.26,1,15.92,2.53,25.57,4.11,3.31.54,6.87,1.32,6.06,5.74-.68,3.7-3.66,5.1-7.35,4.82l-35.14-2.7c-4.52-.35-10.4,0-10.66-6-.28-6.45,5.66-5.8,10.15-6C1628.71,1073.88,1631.33,1074,1637.46,1074Z"/><path class="cls-33" d="M1249.08,1586c1.16,1,3.81,2.16,4.77,4.17q8.93,18.63,17.1,37.6c1.34,3.1,1,7-3,8-2,.49-6.07-.62-6.73-2.09q-9.1-20.65-17.16-41.75C1243.24,1589.72,1244.16,1586.57,1249.08,1586Z"/><path class="cls-34" d="M782.07,1660.32c-6.17-.91-6-5.53-5-9,3.79-12.56,8.07-25,12.59-37.28.71-1.94,3.5-4,5.6-4.32,2.68-.45,5.68,2,4.87,4.71-4.26,14.37-8.95,28.61-13.8,42.79C785.86,1658.63,783.39,1659.4,782.07,1660.32Z"/><path class="cls-35" d="M352.18,798.85c10.93,3.66,24.08,8,37.16,12.5a5.29,5.29,0,0,1,3.61,6.23c-.73,4.18-4,5.37-7.37,4.29-13.13-4.2-26.21-8.63-39.15-13.39a5.1,5.1,0,0,1-3-6.56C344.49,798.93,347.07,798.61,352.18,798.85Z"/><path class="cls-36" d="M929.63,1658.92c-1.37,8.37-2.56,16.78-4.18,25.11-.71,3.65-1.28,8.51-7,6.93-3.58-1-4.76-4.14-4.35-7.79,1.27-11.05,2-22.2,4.06-33.09.85-4.43-.13-12.76,7.06-12,7.68.77,4.16,8,3.94,12.86-.11,2.62-.23,5.25-.35,7.87Z"/><path class="cls-37" d="M1597.67,1203.34c10.69,3.67,23.86,8,36.87,12.8a5,5,0,0,1,3.24,6.42,4.94,4.94,0,0,1-6.34,3.21c-13.27-3.93-26.46-8.17-39.62-12.46-3.81-1.24-5-4.38-3.35-7.84C1589.66,1202.94,1592.28,1202,1597.67,1203.34Z"/><path class="cls-38" d="M416.6,1272.26c-1.4,1.25-3,3.56-5.25,4.54-13.64,6-26.4,14.5-41.83,15.55-.67.05-2.64-4-2.16-4.53,10.29-12.15,25.79-14.67,39.33-20.85a13.6,13.6,0,0,1,5.73-.86C415.69,1266.16,416.75,1268.34,416.6,1272.26Z"/><path class="cls-39" d="M1614,1286.81c-1.84,4.76-4.73,7.31-9.27,5.38-12.06-5.12-24-10.51-35.92-16-3.16-1.44-5.64-4.23-4-7.79s5.69-3.59,8.61-2.4c12.72,5.21,25.3,10.77,37.81,16.48C1612.64,1283.12,1613.21,1285.51,1614,1286.81Z"/><path class="cls-40" d="M800.57,408.59c-.82,1.49-1.48,4.51-3.27,5.53-3.26,1.86-6.56.46-7.83-3.24-4.29-12.43-8.52-24.89-12.36-37.46-.9-2.94-1-7,3.06-8.24s6.3,1.79,7.39,4.86C792,382.43,796,394.94,800.57,408.59Z"/><path class="cls-41" d="M625.76,1525.33c-9.5,12.51-19,25.16-28.75,37.57-.79,1-4.83,1.14-5.25.42-1.2-2-2.56-5.52-1.62-6.92q12.17-18.08,25.34-35.45c1.12-1.48,4.75-1.71,7-1.37C623.61,1519.74,624.3,1522.6,625.76,1525.33Z"/><path class="cls-42" d="M1203.92,1650.2c.68,6.06.46,10.4-4.42,11.38-4.23.84-5.07-3.61-6-6.38-4.06-12.5-7.7-25.13-11.54-37.69-1-3.38-1.59-6.65,2.79-7.81,4-1,5.91,1.38,7.09,4.88C1196,1627.05,1200.29,1639.49,1203.92,1650.2Z"/><path class="cls-43" d="M1638,803.94c-1.4,4.25-4.89,6.12-8.73,7.37q-16,5.19-32.07,10.14c-3.23,1-6.67,1.57-8.36-2.42-1.31-3.08,1-5.27,3.13-6.57,12.64-7.71,27.11-10.09,41.22-13.35C1636.17,798.41,1637.76,800.93,1638,803.94Z"/><path class="cls-44" d="M572.22,1481.12c.29,5.35-29.29,38.9-33.36,39.13-5.81.32-7.33-4.44-4.81-7.57,9.41-11.69,19.43-23,29.92-33.71C567.35,1475.49,570.93,1478.23,572.22,1481.12Z"/><path class="cls-45" d="M393.3,1208.31c-.73,1.15-1.39,3.67-2.77,4.14q-20.32,7-40.89,13.35c-2.36.72-5.58,0-6.06-3.2a5.84,5.84,0,0,1,2.2-4.72c12.91-8.32,28.3-9.75,42.42-14.73C390.94,1202.18,392.86,1204.65,393.3,1208.31Z"/><path class="cls-46" d="M1136.41,358.07c-2.44,10.49-5.24,22.67-8.12,34.84-.82,3.48-2.6,6.24-6.74,5.6-4.56-.71-4.18-3.83-3.54-7.42,2.22-12.31,4.2-24.67,6.2-37,.68-4.18,2.34-8.76,6.66-8.6C1137.66,345.7,1135.67,351.94,1136.41,358.07Z"/><path class="cls-47" d="M1271,396.18A171.62,171.62,0,0,1,1253.54,435c-1,1.65-4.77,3.08-6.56,2.5-3.7-1.22-3.91-5.6-2.73-8.28q8.31-18.81,17.76-37.08c.85-1.67,4.47-3.06,6.5-2.71C1271.36,389.87,1271.62,393,1271,396.18Z"/><path class="cls-48" d="M1068,348.66c-3.29,9.41-3.74,19.92-4.09,30.46-.14,4.21-1.63,8-6.93,7.29-4.19-.59-4.5-4.32-4.66-7.58-.55-11.23-.26-22.36,3.34-33.22,1.39-4.18.61-10.37,7.42-9.11C1069.26,337.65,1067.51,343.51,1068,348.66Z"/><path class="cls-49" d="M1186.81,415c-5.94-.68-7.07-4.26-5.71-8.56,4-12.53,8.09-25,12.65-37.35.67-1.82,3.9-3.5,6.12-3.75,3.43-.38,4.31,3.13,4,5.53-1.83,14.46-7.38,27.84-12.85,41.19C1190.44,413.46,1188,414.15,1186.81,415Z"/><path class="cls-2" d="M1343.37,419.17c3.23,5.43-.41,9.12-2.73,12.84-13.29,21.25-26.86,42.33-40,63.66-4.75,7.69-9.5,8.92-17.55,4-8.37-5.07-8.73-9.76-3.69-17.43,13.76-20.93,27.42-42,40.3-63.44C1328.7,403.77,1335.67,415.7,1343.37,419.17Z"/><text class="cls-50" transform="translate(828.89 950.51)">5<tspan class="cls-51"><tspan x="-273.42" y="319.59">Hours</tspan></tspan></text><path class="cls-52" d="M1678.64,1074.88c0,.16,0,.36-.08.52,0,0-13.89,140.17-93.33,284.82-.07.12-.15.28-.23.44-52.24,94.88-132.71,191.64-256,251.87-.2.12-.44.2-.64.32l-54.51-93a.44.44,0,0,1,.16-.08c5.47-2.64,154.67-75.72,241.93-258.34,1.08-2.2,2.15-4.44,3.15-6.67a613.16,613.16,0,0,0,36.9-103.15s0-.12,0-.16a.63.63,0,0,1,0-.16c1.72-5.15,42.17-130.83-.32-293.89,0-.12,0-.23-.08-.39-.56-2.08-1.12-4.16-1.67-6.27-.52-1.84-1-3.68-1.56-5.56a608.46,608.46,0,0,0-33-89.09c-1.4-3.08-2.83-6.11-4.31-9.19a.44.44,0,0,1-.08-.16c-.76-1.79-8.67-19.56-25-46-1-1.72-2.16-3.51-3.27-5.31-40.9-65-128.84-175.76-280.75-238.09q-8.81-3.66-17.81-6.95c-1.44-.56-2.87-1.08-4.31-1.6l-.68-.24c-.12,0-.28-.08-.48-.16a815.14,815.14,0,0,0-98.8-26c-33-6.39-69.37-10.82-101-8.58V306s30.16-1.64,78.68,4.39a4.41,4.41,0,0,1,.72.08c96.6,12.06,265.16,54.32,413.56,199,.76.76,1.48,1.48,2.24,2.2A766.81,766.81,0,0,1,1552.21,596S1719.38,801.73,1678.64,1074.88Z"/></svg>