<svg id="Слой_1" data-name="Слой 1" xmlns="http://www.w3.org/2000/svg" viewBox="0 0 2000 2000"><defs><style>.cls-1,.cls-50{fill:#36a3fd;}.cls-2{fill:#b2dae4;}.cls-3{fill:#b6deeb;}.cls-4{fill:#afd0e0;}.cls-5{fill:#abcee3;}.cls-6{fill:#afdfe5;}.cls-7{fill:#b3d7e4;}.cls-8{fill:#a4b6d1;}.cls-9{fill:#b5dbe3;}.cls-10{fill:#b7c5d7;}.cls-11{fill:#aed3e1;}.cls-12{fill:#b3d4e6;}.cls-13{fill:#b1d8e3;}.cls-14{fill:#acc6d8;}.cls-15{fill:#a3b3cc;}.cls-16{fill:#b0d6de;}.cls-17{fill:#a0aecd;}.cls-18{fill:#a3b5cf;}.cls-19{fill:#add2df;}.cls-20{fill:#a2b1d0;}.cls-21{fill:#9faeca;}.cls-22{fill:#b2d4e1;}.cls-23{fill:#abd9e2;}.cls-24{fill:#b2d7e3;}.cls-25{fill:#b3d9e5;}.cls-26{fill:#a3bbd5;}.cls-27{fill:#aecdde;}.cls-28{fill:#a2b8ca;}.cls-29{fill:#aac4d6;}.cls-30{fill:#a4b3cc;}.cls-31{fill:#add8df;}.cls-32{fill:#a6c8dc;}.cls-33{fill:#9db2c8;}.cls-34{fill:#9fb0ce;}.cls-35{fill:#aad3de;}.cls-36{fill:#a0b5ce;}.cls-37{fill:#a4c2d7;}.cls-38{fill:#a3bfd3;}.cls-39{fill:#a6c0d4;}.cls-40{fill:#b2dae3;}.cls-41{fill:#a8b7cd;}.cls-42{fill:#9cafcd;}.cls-43{fill:#add2de;}.cls-44{fill:#a0b2cb;}.cls-45{fill:#a7bdd4;}.cls-46{fill:#6fe5fd;}.cls-47{fill:#6de5fd;}.cls-48{fill:#72e4fd;}.cls-49{fill:#71e4fd;}.cls-50{font-size:401.94px;font-family:Poppins-Bold, Poppins;font-weight:700;}.cls-51{font-size:268.05px;}.cls-52{fill:#fff;}</style></defs><path class="cls-1" d="M984.52,298.44V406.88c172.15,0,327.26,73.11,435.9,190A593.05,593.05,0,0,1,1579.59,1002c0,328.62-266.45,595.06-595.07,595.06a592.15,592.15,0,0,1-293.89-77.53L637,1613.73a700.55,700.55,0,0,0,347.51,91.73c388.55,0,703.51-315,703.51-703.51S1373.07,298.44,984.52,298.44ZM635.84,1613.05c-2.53-1.45-5.06-2.89-7.55-4.46Z"/><path class="cls-1" d="M1635.43,1020.13c-12.69,0-25.38-.22-38.06.07-9.08.22-13.33-3.3-13.63-12.8-.32-10.11,5.14-12.83,13.56-12.84,26,0,52.06.33,78.09,0,9.37-.11,11,4.71,11,12.55s-1.79,13.21-10.86,13.18c-13.35,0-26.71,0-40.07,0Z"/><path class="cls-1" d="M494.35,1308.12c-.08,5.86-5,7.43-8.91,9.69-21.36,12.43-42.9,24.56-64.19,37.12-7.55,4.45-12.51,5-17.71-4-4.92-8.52-3.49-12.64,4.67-17.17,22.19-12.33,43.87-25.56,66.08-37.83C484.28,1290.44,494.74,1297.25,494.35,1308.12Z"/><path class="cls-1" d="M1597.43,670.28c.35,6.35-4.6,8-8.41,10.19-21.75,12.79-43.66,25.29-65.34,38.2-7.82,4.65-12.63,3.54-17.54-4.56-5.11-8.42-3.26-12.77,4.81-17.27,22-12.28,44-24.7,65.48-37.89C1591.5,649.71,1592.17,663.6,1597.43,670.28Z"/><path class="cls-1" d="M1011.32,1643.66c0,12.7-.27,25.41.09,38.1.26,9.27-3.15,12.94-12.89,12.94-10.22,0-12.27-4.54-12.13-13.45.39-24.72.58-49.46,0-74.18-.25-10.62,3.83-14,14-14,10.91,0,11.32,6.45,11.15,14.5-.27,12-.07,24.06-.07,36.09Z"/><path class="cls-2" d="M1011.32,367.74c0,12.7-.27,25.41.09,38.1.26,9.27-3.15,12.94-12.89,12.94-10.22,0-12.27-4.54-12.13-13.45.39-24.72.58-49.46,0-74.18-.25-10.63,3.83-14,14-14,10.91.05,11.32,6.45,11.15,14.5-.27,12-.07,24.06-.07,36.09Z"/><path class="cls-1" d="M661.58,1605.49c-5.72-5.29-21.49-4-11.19-20.23,13.61-21.38,26-43.57,38.18-65.8,4.66-8.47,8.79-9.29,17.18-4.69,8.82,4.84,9,9.33,4.33,17.15-13,21.76-25.43,43.89-38.26,65.76C669.68,1601.32,668.72,1607,661.58,1605.49Z"/><path class="cls-1" d="M479.18,721.14c-6-3.36-13-7.23-20-11.16-16.91-9.52-33.7-19.24-50.73-28.51-7.85-4.28-11-8.76-5.32-17.38,5-7.59,9.89-9.65,18.08-4.73C443,672.44,465,685.08,487,697.83c4.92,2.86,9.63,5.82,5.57,12.41C489.67,715,488.71,722.18,479.18,721.14Z"/><path class="cls-1" d="M712.64,490.8c-.2,6.19-6,7.67-10.33,10.22-4.75,2.78-8.89,1.91-11.8-3.13C676.82,474.24,663,450.63,649.42,427c-4.8-8.34,1.38-12,7.12-15.79,5.14-3.35,9.93-4.07,13.46,2.15q20.7,36.54,41.28,73.13A23.42,23.42,0,0,1,712.64,490.8Z"/><path class="cls-1" d="M1298.15,1511.84c7.18-2,8.22,3.94,10.31,7.49,12.83,21.79,25.07,43.92,38.08,65.6,4.8,8,3.94,12.61-4.26,17.62-8.37,5.11-12.62,3.36-17.14-4.8-12.23-22.13-24.59-44.23-37.93-65.7C1277.79,1516.87,1291.18,1516.38,1298.15,1511.84Z"/><path class="cls-1" d="M1583.18,1358.68c-2-1-5.06-2.35-7.9-4-21.27-12.34-42.18-25.33-63.88-36.86-10-5.34-9.18-10.44-4.62-18.74,5.18-9.45,10.88-6.69,17.65-2.61q31.56,19,63.33,37.78c5.46,3.23,10.68,6.38,6.88,13.89C1592.35,1352.65,1591.4,1358.7,1583.18,1358.68Z"/><path class="cls-1" d="M409.7,1017.09c-30,8.07-60.42,1.35-90.61,2.67-5.85.25-7.36-5-7.09-10,.31-5.8-.49-12.06,7.8-14a62.09,62.09,0,0,1,33.45,1.05c5.56,13.89,16.32,16.32,30,15.2C392.13,1011.32,402.05,1009.49,409.7,1017.09Z"/><path class="cls-1" d="M409.7,1017.09c-11.15-.11-22.37-1.06-33.43-.12-15.31,1.29-27.64.7-23-20.13,14.38-.43,28.78-.61,43.15-1.36C414.48,994.52,416.15,1003.2,409.7,1017.09Z"/><path class="cls-3" d="M924.27,344.09c3.21-4.92-8.6-18.66,3-19.44,9.84-.67,7.93,14,8.83,22.92.79,7.83,2.71,15.58,3.22,23.42.32,4.81-1.83,9.5-7.81,9.32-4.68-.14-6.92-4-7.11-8.11C924,363.63,924.27,355,924.27,344.09Z"/><path class="cls-4" d="M359.69,946.13c-12-1.18-25.15-2.14-38.16-3.93-3.54-.48-8-2.73-6-8.1,1.28-3.41,4.64-5.44,8-4.52,13,3.56,26.27,2.34,39.39,3.5,5,.45,9.71,2.87,8.72,8.51S366,948.37,359.69,946.13Z"/><path class="cls-5" d="M346.89,1069c6.5,0,9.2-.29,11.8.06,4.71.65,12.28-2.54,12.31,5.58,0,5.25-6,6-10.87,6.48-11.85,1.14-23.67,2.67-35.53,3.68-4.2.35-8.58-1.44-9.34-5.79-1-5.57,4.24-5.37,7.94-6.41C332.22,1070.08,341.34,1068.63,346.89,1069Z"/><path class="cls-6" d="M871.53,377.35c0,6.18.77,12.1-4.77,13.43-6.55,1.57-6.82-4.95-7.78-9.14q-4-17.43-7.21-35.05c-.73-4-.13-8.74,4.51-9.93,5.34-1.37,6.34,3.45,7.28,7.25C866.42,355.52,869.11,367.16,871.53,377.35Z"/><path class="cls-7" d="M529.71,582c-2.68,7.14-7.88,5.58-12.2,1.68-9.43-8.5-18.39-17.53-27.34-26.56-2.91-2.94-5.38-6.86.42-9.37C497.5,544.71,530.76,573.44,529.71,582Z"/><path class="cls-8" d="M1460,1513.36c-1.84,5.87-6,7.11-10.17,2.85-9.72-9.8-19-20.07-28.11-30.44-2-2.25-4.11-5.74-1.09-8.79,1.11-1.12,3.53-1.53,5.25-1.34C1430.91,1476.2,1460.11,1508.56,1460,1513.36Z"/><path class="cls-9" d="M720.3,378.88a15.68,15.68,0,0,1,3.8.71c2.66,1.17,22.85,43.23,21.94,45.81-2.24,6.35-8.08,6.5-10.69,2.51a143.27,143.27,0,0,1-18.81-43.34C715.84,381.86,716.87,379.35,720.3,378.88Z"/><path class="cls-10" d="M1556.71,1408.51c-2,4.4-4.88,7-9.31,4.14-12.66-8.3-25.16-16.86-37.57-25.54a5.2,5.2,0,0,1-1.56-7c1.87-3.41,4.59-4.48,8.16-2.47,13.23,7.46,25.92,15.7,37,26.17C1554.82,1405.07,1555.66,1407,1556.71,1408.51Z"/><path class="cls-11" d="M1623.53,880c-2.28-.06-6.76.51-7.6-5a5,5,0,0,1,4.08-5.93c14.33-2.76,28-9,42.92-8.66,3.49.09,6.83,1,7.28,5.13s-2.33,5.85-5.9,6.55C1651.26,874.66,1638.21,877.17,1623.53,880Z"/><path class="cls-12" d="M442.9,607.15c.54-4.4,3.47-7.78,7.75-4.92,12.55,8.35,24.69,17.36,36.59,26.63,3.36,2.62,1.18,6.3-2.09,7.86C478.73,639.77,443.19,615.06,442.9,607.15Z"/><path class="cls-13" d="M1424.55,538.61c-5.51-.9-6.9-4.3-3.6-8.3,8.84-10.72,18-21.23,27.43-31.41,3.73-4,8.49-5.16,9.72,2.36C1459.27,508.49,1431.64,538.85,1424.55,538.61Z"/><path class="cls-14" d="M1658.71,1154c-12.41-2.86-24.72-5.69-37-8.56-3.57-.83-6.34-2.74-5.6-6.79,1-5.56,5.18-4.89,9.29-4.06q17.57,3.52,35.17,6.92c4.44.85,10.52.32,9.56,7.14C1669.16,1155.31,1662.88,1152.69,1658.71,1154Z"/><path class="cls-15" d="M1373.15,1516.23c1.57,1.27,3.92,2.5,5.34,4.42,8.32,11.22,16.44,22.6,24.58,34,1.61,2.25,2.57,4.75.25,7.14-2.15,2.22-5.51,2.63-7.12.59-9.86-12.47-19.6-25.06-28.69-38.08C1365.44,1521.3,1368.92,1518.28,1373.15,1516.23Z"/><path class="cls-16" d="M424.1,748.15c-1.51,5.56-5.07,7.87-10.34,5.51-13.25-6-26.34-12.3-39.49-18.48-2.73-1.28-4.42-3.53-2.67-6.15,1.27-1.91,4.61-4.54,5.85-4,15.12,6.27,30,13,44.94,19.81C423.28,745.21,423.54,747,424.1,748.15Z"/><path class="cls-17" d="M852,1669.45c2.66-12.73,5-23.82,7.29-34.9.92-4.38.55-10.81,7.17-9.72,7.74,1.28,5.42,8.22,4.53,13.06-2,11.12-4.92,22.09-7.3,33.15-.87,4.07-1.65,8.61-6.91,7.88C849.72,1678,852.7,1672,852,1669.45Z"/><path class="cls-18" d="M1472,1427.75c14.73,9,26.36,20.6,37.25,33,.86,1,.38,4-.51,5.45-1.49,2.38-4.57,3.56-6.79,1.63-11.41-9.93-22.68-20-33.65-30.45-1.38-1.31-1.25-4.9-.75-7.19C1467.78,1429.08,1470.52,1428.5,1472,1427.75Z"/><path class="cls-19" d="M368.44,880c-12.26-2.87-24-5.48-35.6-8.45-3.24-.82-6.33-3-5.83-7,.57-4.59,4.76-4.59,7.75-4,13.75,2.49,27.44,5.35,41.1,8.33,3.68.8,5.94,3.6,4.25,7.4C377.62,881.86,372.31,879.89,368.44,880Z"/><path class="cls-20" d="M1075.8,1676.68c.31,6.61.59,12.2-5.19,13.25-7.49,1.36-5.65-5.47-6.54-9.52-2.59-11.72-4.44-23.53-3.76-35.6.22-4.06.47-8.76,5.76-8.68,5,.08,5.75,4.63,6.06,8.75C1073,1656.14,1072,1667.6,1075.8,1676.68Z"/><path class="cls-21" d="M1145.07,1668.48c-.45,3.93,1.4,9-4.15,10-5.12.93-6.62-3.45-7.49-7.31-2.77-12.22-5.4-24.47-7.79-36.77-.74-3.83-1.18-8.44,4.18-9.49s6.33,3.06,7.21,7.16C1139.64,1644.26,1142.41,1656.48,1145.07,1668.48Z"/><path class="cls-22" d="M1572,751.83c14.06-16.66,29.68-18.13,42-25.52,3.9-2.33,8-2.37,10.5,1.7,2.94,4.7-.58,7.24-4.32,9.2C1606.55,744.35,1592.82,751.21,1572,751.83Z"/><path class="cls-23" d="M1473.52,586.27c-3,.43-5.76-.42-6.18-3.4-.34-2.36.14-5.85,1.7-7.31,9.72-9.12,19.6-18.11,30-26.47,3.56-2.86,9.18-4.54,10.24,3.15C1509.76,556,1477.79,586,1473.52,586.27Z"/><path class="cls-24" d="M544.34,496.72c4.52.2,34.11,32.21,33.41,36.22-1.21,6.88-6.73,7.31-10.24,3.75A374.53,374.53,0,0,1,540,505.2C537,501.43,539.63,497.74,544.34,496.72Z"/><path class="cls-2" d="M1403.82,460.24c-8.58,11.09-18.2,23.67-28.11,36-.72.9-4.34.84-5.26-.09-1.64-1.68-3.77-5.47-3.06-6.46,9.25-12.82,18.52-25.7,28.91-37.58C1398.64,449.44,1403.71,452.59,1403.82,460.24Z"/><path class="cls-25" d="M631.12,500.47c-19.88-10.58-26.2-26.7-36.79-38.8-2.11-2.4-3.08-6.15.51-8.75,4.32-3.12,7.93-.74,10.19,2.61C613.74,468.41,625.21,479.71,631.12,500.47Z"/><path class="cls-26" d="M447.73,1412.73c-1-.58-3.05-1.2-4-2.61-2.26-3.22-1.24-6.44,1.79-8.6q16.93-12.07,34.11-23.82c2.24-1.53,5.17-2.08,7.11.5a8.06,8.06,0,0,1,1.42,5.28C487.78,1386.46,451.67,1412.83,447.73,1412.73Z"/><path class="cls-27" d="M1647.62,945.07c-4,0-7.95.12-11.92,0-3.34-.14-7-.55-7.22-4.88-.15-3.91,3.06-6,6.33-6.4,13.74-1.44,27.51-2.64,41.31-3.37,1.72-.09,4.6,2.94,5.21,5,.78,2.69-1.73,4.26-4.45,5.37C1667.43,944.62,1657.57,945,1647.62,945.07Z"/><path class="cls-28" d="M492.23,1467.19c-1.06-.57-4.08-1.36-4.17-2.4-.21-2.32.29-5.58,1.84-7,10.22-9.58,20.76-18.82,31.28-28.08,2.1-1.84,4.88-2.82,7.06-.48a7.6,7.6,0,0,1,1.53,5.33C529.22,1440.14,498.61,1467.09,492.23,1467.19Z"/><path class="cls-29" d="M338.29,1153.49c-4.88.15-9.46.06-10.35-4.79-1-5.23,3.64-6,7.55-6.86,12.21-2.63,24.37-5.47,36.62-7.85,4.05-.79,8.38.06,8.55,5.43.12,3.81-2.94,5.42-6.46,6.17C362,1148.22,349.76,1151,338.29,1153.49Z"/><path class="cls-30" d="M722.16,1635.22c-4.46-.49-7-2.68-5.94-5.25q9.16-22.08,19.44-43.69c.69-1.43,4.78-2.23,6.94-1.74,2.88.65,3.64,3.6,2.4,6.4-5.94,13.38-11.84,26.78-18.08,40C726,1633,723.32,1634.23,722.16,1635.22Z"/><path class="cls-31" d="M1513.74,638.15c-1-.57-3-1.19-4.11-2.56-2-2.47-.84-5.21,1.3-6.84,10.92-8.31,21.77-16.78,33.18-24.38,3.66-2.44,9.63-3.14,9.16,4.69C1553,613.77,1519.65,638.46,1513.74,638.15Z"/><path class="cls-32" d="M1649.47,1069.06c6.29,1,16,2.55,25.73,4.14,3.33.54,6.92,1.33,6.1,5.78-.68,3.72-3.69,5.13-7.4,4.85l-35.36-2.72c-4.55-.36-10.47,0-10.73-6-.29-6.5,5.69-5.85,10.21-6C1640.65,1069,1643.29,1069.06,1649.47,1069.06Z"/><path class="cls-33" d="M1258.57,1584.4c1.17,1,3.84,2.17,4.81,4.19q9,18.75,17.21,37.85c1.34,3.12,1,7-3,8-2.06.49-6.12-.62-6.78-2.11q-9.16-20.77-17.27-42C1252.7,1588.16,1253.62,1585,1258.57,1584.4Z"/><path class="cls-34" d="M788.54,1659.22c-6.22-.92-6.08-5.57-5-9.1,3.81-12.64,8.11-25.14,12.66-37.53.72-1.94,3.53-4,5.65-4.34,2.69-.45,5.71,2,4.9,4.74-4.29,14.46-9,28.8-13.89,43.07C792.35,1657.52,789.86,1658.29,788.54,1659.22Z"/><path class="cls-35" d="M355.87,792.17c11,3.69,24.23,8,37.39,12.58A5.31,5.31,0,0,1,396.9,811c-.74,4.2-4,5.4-7.41,4.31-13.23-4.23-26.39-8.69-39.42-13.48a5.15,5.15,0,0,1-3-6.6C348.13,792.26,350.72,791.93,355.87,792.17Z"/><path class="cls-36" d="M937.05,1657.8c-1.37,8.43-2.58,16.9-4.2,25.28-.71,3.68-1.29,8.56-7.07,7-3.6-1-4.8-4.17-4.37-7.84,1.27-11.12,2-22.35,4.08-33.31.86-4.46-.13-12.84,7.11-12.11,7.72.78,4.18,8,4,12.94-.11,2.64-.24,5.29-.35,7.93Z"/><path class="cls-37" d="M1609.42,1199.28c10.76,3.69,24,8.08,37.11,12.88a5.05,5.05,0,0,1,3.26,6.46,5,5,0,0,1-6.38,3.24c-13.36-4-26.63-8.23-39.88-12.55-3.84-1.25-5-4.41-3.37-7.89C1601.35,1198.88,1604,1198,1609.42,1199.28Z"/><path class="cls-38" d="M420.7,1268.65c-1.41,1.25-3.05,3.58-5.28,4.57-13.73,6.07-26.58,14.59-42.11,15.65-.66,0-2.65-4-2.17-4.56,10.36-12.23,26-14.77,39.59-21a13.77,13.77,0,0,1,5.77-.87C419.78,1262.51,420.85,1264.7,420.7,1268.65Z"/><path class="cls-39" d="M1625.84,1283.29c-1.85,4.79-4.75,7.36-9.33,5.41-12.14-5.15-24.17-10.58-36.15-16.07-3.18-1.46-5.68-4.26-4-7.85s5.72-3.61,8.66-2.41c12.81,5.24,25.47,10.84,38,16.58C1624.48,1279.58,1625.06,1282,1625.84,1283.29Z"/><path class="cls-40" d="M807.15,399.38c-.82,1.5-1.48,4.54-3.29,5.57-3.27,1.87-6.59.46-7.88-3.26-4.31-12.51-8.57-25.05-12.44-37.7-.9-3-1-7,3.09-8.3s6.33,1.8,7.43,4.9C798.48,373.05,802.55,385.64,807.15,399.38Z"/><path class="cls-41" d="M631.21,1523.36c-9.56,12.59-19.1,25.31-28.93,37.81-.8,1-4.86,1.14-5.29.42-1.2-2-2.57-5.55-1.62-7q12.24-18.19,25.5-35.67c1.13-1.49,4.78-1.73,7.09-1.39C629.05,1517.73,629.75,1520.61,631.21,1523.36Z"/><path class="cls-42" d="M1213.12,1649c.68,6.1.46,10.47-4.45,11.45-4.26.85-5.11-3.63-6-6.42-4.09-12.57-7.76-25.29-11.63-37.93-1-3.4-1.59-6.7,2.81-7.86,4-1.06,6,1.39,7.14,4.91C1205.18,1625.73,1209.46,1638.26,1213.12,1649Z"/><path class="cls-43" d="M1650,797.29c-1.41,4.28-4.93,6.16-8.79,7.42q-16.1,5.24-32.28,10.21c-3.24,1-6.71,1.58-8.41-2.44-1.31-3.1,1-5.3,3.15-6.61,12.72-7.77,27.28-10.15,41.48-13.44C1648.17,791.73,1649.76,794.26,1650,797.29Z"/><path class="cls-44" d="M577.33,1478.86c.3,5.39-29.48,39.15-33.57,39.38-5.85.33-7.39-4.47-4.85-7.62,9.48-11.77,19.56-23.1,30.11-33.93C572.43,1473.2,576,1476,577.33,1478.86Z"/><path class="cls-45" d="M397.25,1204.28c-.73,1.16-1.4,3.69-2.78,4.17q-20.46,7.07-41.16,13.44c-2.38.72-5.62,0-6.1-3.23a5.9,5.9,0,0,1,2.21-4.75c13-8.37,28.48-9.81,42.7-14.82C394.87,1198.12,396.81,1200.6,397.25,1204.28Z"/><path class="cls-46" d="M1145.18,348.54c-2.46,10.55-5.28,22.82-8.18,35.06-.83,3.5-2.62,6.29-6.79,5.64-4.58-.72-4.21-3.86-3.56-7.47,2.24-12.39,4.23-24.83,6.25-37.27.68-4.2,2.35-8.82,6.69-8.66C1146.43,336.09,1144.42,342.37,1145.18,348.54Z"/><path class="cls-47" d="M1280.65,386.9a173.14,173.14,0,0,1-17.59,39c-1,1.67-4.8,3.11-6.6,2.52-3.73-1.22-3.94-5.63-2.75-8.34,5.57-12.61,11.56-25.05,17.87-37.31.86-1.68,4.51-3.08,6.55-2.73C1281,380.54,1281.25,383.7,1280.65,386.9Z"/><path class="cls-48" d="M1076.28,339.07c-3.31,9.47-3.76,20-4.11,30.66-.14,4.23-1.65,8.07-7,7.33-4.22-.59-4.53-4.34-4.69-7.63-.56-11.3-.27-22.5,3.36-33.44,1.4-4.2.61-10.43,7.46-9.16C1077.59,328,1075.83,333.88,1076.28,339.07Z"/><path class="cls-49" d="M1195.9,405.79c-6-.69-7.12-4.3-5.75-8.62,4-12.61,8.15-25.18,12.73-37.59.67-1.83,3.93-3.53,6.16-3.77,3.46-.38,4.34,3.15,4,5.56-1.84,14.55-7.42,28-12.92,41.46C1199.55,404.28,1197.11,405,1195.9,405.79Z"/><path class="cls-2" d="M1353.47,410c3.25,5.47-.41,9.18-2.75,12.93-13.37,21.39-27,42.6-40.28,64.07-4.78,7.74-9.57,9-17.67,4.06-8.42-5.1-8.79-9.82-3.71-17.54,13.85-21.07,27.59-42.23,40.55-63.85C1338.71,394.53,1345.73,406.54,1353.47,410Z"/><text class="cls-50" transform="translate(863 944.81)">7<tspan class="cls-51"><tspan x="-298.31" y="321.66">Hours</tspan></tspan></text><path class="cls-52" d="M694.23,1509.07c7.36,3.9,11.5,5.71,11.5,5.71l-.45.76C701.59,1513.45,697.89,1511.28,694.23,1509.07Z"/></svg>